<svg height="512" viewBox="0 0 152 152" width="512" xmlns="http://www.w3.org/2000/svg"><g id="Layer_2" data-name="Layer 2"><g id="_19.bell" data-name="19.bell"><path d="m84.58 70.61a23.75 23.75 0 0 1 12.55 18 2 2 0 0 0 1.94 1.72h.24a2 2 0 0 0 1.69-2.16 27.78 27.78 0 0 0 -14.76-21.11 2 2 0 0 0 -1.66 3.55z"/><path d="m121.86 0h-91.72a30.22 30.22 0 0 0 -30.14 30.14v91.72a30.22 30.22 0 0 0 30.14 30.14h91.72a30.22 30.22 0 0 0 30.14-30.14v-91.72a30.22 30.22 0 0 0 -30.14-30.14zm-79.17 76.25q8.69-16.59 27.13-20.14c.32-.06.8-.48.82-.75.07-1.65 0-3.31 0-5-.58-.14-1-.23-1.46-.35a5.28 5.28 0 0 1 -3.77-5.73 5.11 5.11 0 0 1 4.93-4.61q5.88-.11 11.76 0c2.11 0 4.21 2.37 4.46 4.74a5.33 5.33 0 0 1 -3.78 5.59c-.43.12-.88.21-1.39.33v4.73a1.11 1.11 0 0 0 .86 1.08l.75.15a37.23 37.23 0 0 1 29.91 31.85 36.14 36.14 0 0 1 .22 5.2 5 5 0 0 1 -4.91 4.75h-64.72c-2.35 0-4.59-2.37-4.65-4.92a34.11 34.11 0 0 1 3.84-16.92zm72.19 36a2.6 2.6 0 0 1 -.88.11h-75.37a5.09 5.09 0 0 1 -5.13-5 5 5 0 0 1 4.91-5.36q16.47-.1 32.93-.11c14 0 27.92.07 41.87 0a5.67 5.67 0 0 1 5.19 4.11 5.51 5.51 0 0 1 -3.52 6.29z"/></g></g></svg>