<svg id="Layer_1" height="512" viewBox="0 0 512 512" width="512" xmlns="http://www.w3.org/2000/svg" data-name="Layer 1"><path d="m387.869 72.026a49.63 49.63 0 0 0 -45.564-6.735l-192.315 67.079h-64.513c-47.086 0-85.393 44.279-85.393 98.7s38.307 98.7 85.393 98.7h5.548v103.742a16 16 0 0 0 16 16h.109l22.163-.151a16 16 0 0 0 -.107-32h-.11l-6.055.041v-87.622h26.965l192.315 67.079a49.441 49.441 0 0 0 16.317 2.787 50.366 50.366 0 0 0 29.246-9.522c16.22-11.52 25.9-31.407 25.9-53.2v-211.7c.003-21.79-9.68-41.677-25.899-53.198zm-355.785 159.049c0-36.781 23.952-66.7 53.393-66.7h51.223v133.405h-51.223c-29.441 0-53.393-29.924-53.393-66.705zm349.687 105.85c0 11.275-4.764 21.664-12.433 27.111a17.649 17.649 0 0 1 -16.494 2.609l-184.144-64.229v-142.681l184.143-64.23a17.652 17.652 0 0 1 16.5 2.61c7.669 5.447 12.433 15.835 12.433 27.11zm67.9-227.339a16 16 0 0 1 8.067-21.141l28.883-12.927a16 16 0 1 1 13.072 29.208l-28.882 12.927a15.988 15.988 0 0 1 -21.14-8.067zm58.09 268.979a15.987 15.987 0 0 1 -21.14 8.068l-28.883-12.928a16 16 0 1 1 13.074-29.205l28.882 12.928a16 16 0 0 1 8.068 21.137zm4.154-147.49a16 16 0 0 1 -16 16h-31.64a16 16 0 0 1 0-32h31.641a16 16 0 0 1 16 16zm-277.415-14.354v31.641a16 16 0 1 1 -32 0v-31.641a16 16 0 0 1 32 0z"/></svg>