<svg width="419" height="410" viewBox="0 0 419 410" fill="none" xmlns="http://www.w3.org/2000/svg">
<path d="M296.96 266.24C283.786 266.24 273.066 255.52 273.066 242.347C273.066 229.173 283.786 218.453 296.96 218.453C310.134 218.453 320.853 229.173 320.853 242.347C320.853 255.52 310.132 266.24 296.96 266.24ZM296.96 232.107C291.312 232.107 286.72 236.699 286.72 242.347C286.72 247.994 291.312 252.587 296.96 252.587C302.607 252.587 307.2 247.994 307.2 242.347C307.2 236.699 302.605 232.107 296.96 232.107Z" fill="#4C241D"/>
<path d="M204.8 88.7466C208.57 88.7466 211.626 85.6902 211.626 81.9199C211.626 78.1497 208.57 75.0933 204.8 75.0933C201.03 75.0933 197.973 78.1497 197.973 81.9199C197.973 85.6902 201.03 88.7466 204.8 88.7466Z" fill="#4C241D"/>
<path d="M252.586 27.3067C256.357 27.3067 259.413 24.2503 259.413 20.48C259.413 16.7097 256.357 13.6533 252.586 13.6533C248.816 13.6533 245.76 16.7097 245.76 20.48C245.76 24.2503 248.816 27.3067 252.586 27.3067Z" fill="#4C241D"/>
<path d="M348.16 54.6134C346.414 54.6134 344.666 53.9461 343.333 52.6132L322.853 32.1332C320.188 29.4674 320.188 25.1461 322.853 22.4803C325.519 19.8145 329.84 19.8145 332.506 22.4803L352.986 42.9603C355.652 45.6261 355.652 49.9474 352.986 52.6132C351.652 53.9461 349.906 54.6134 348.16 54.6134Z" fill="#4C241D"/>
<path d="M327.68 54.6134C325.934 54.6134 324.186 53.9461 322.853 52.6132C320.188 49.9474 320.188 45.6261 322.853 42.9603L343.333 22.4803C345.999 19.8145 350.32 19.8145 352.986 22.4803C355.652 25.1461 355.652 29.4674 352.986 32.1332L332.506 52.6132C331.172 53.9461 329.426 54.6134 327.68 54.6134Z" fill="#4C241D"/>
<path d="M177.493 402.773H54.6131L13.6531 348.16H218.453L177.493 402.773Z" fill="#6B4F5B"/>
<path d="M177.493 409.6H54.6131C52.4661 409.6 50.4403 408.59 49.1535 406.869L8.19349 352.256C6.64042 350.186 6.39296 347.419 7.54667 345.107C8.7072 342.794 11.0658 341.333 13.6531 341.333H218.453C221.04 341.333 223.399 342.793 224.56 345.107C225.713 347.419 225.466 350.188 223.913 352.256L182.953 406.869C181.666 408.59 179.638 409.6 177.493 409.6ZM58.0265 395.947H174.08L204.8 354.987H27.3065L58.0265 395.947Z" fill="#4C241D"/>
<path d="M61.44 157.013L6.82666 102.4L177.587 120.696C187.1 121.714 192.346 132.257 187.424 140.461L177.493 157.013H61.44Z" fill="#BF7E68"/>
<path d="M177.493 163.84H61.4399C59.6274 163.84 57.8935 163.12 56.6135 161.84L2.00012 107.226C-0.0461745 105.18 -0.580361 102.067 0.667212 99.4526C1.91991 96.8465 4.60108 95.2628 7.55361 95.6126L178.314 113.91C185.114 114.637 190.988 118.726 194.034 124.843C197.074 130.959 196.794 138.109 193.282 143.969L183.349 160.526C182.113 162.584 179.893 163.84 177.493 163.84ZM64.2661 150.187H173.626L181.572 136.946C183.166 134.289 182.265 131.854 181.806 130.927C181.345 130.004 179.946 127.817 176.86 127.483L25.3268 111.246L64.2661 150.187Z" fill="#4C241D"/>
<path d="M184.32 157.013H143.36H61.44L13.6533 348.16H218.453L181.656 215.603C177.879 201.996 185.638 187.859 199.144 183.738L286.72 157.013V129.707L184.32 157.013Z" fill="#FC8C29"/>
<path d="M218.453 354.987H13.6533C11.5541 354.987 9.56585 354.017 8.2739 352.36C6.98025 350.703 6.52116 348.544 7.03316 346.503L54.8198 155.356C55.5793 152.32 58.3066 150.187 61.44 150.187H183.427L284.96 123.11C287.02 122.578 289.2 123.004 290.881 124.293C292.56 125.587 293.547 127.587 293.547 129.707V157.013C293.547 160.017 291.587 162.666 288.713 163.543L201.141 190.266C191.094 193.333 185.428 203.66 188.24 213.775L225.034 346.332C225.601 348.389 225.181 350.592 223.887 352.288C222.599 353.99 220.587 354.987 218.453 354.987ZM22.4 341.333H209.473L175.08 217.429C170.274 200.122 179.966 182.453 197.154 177.207L279.893 151.96V138.593L186.08 163.61C185.506 163.763 184.912 163.84 184.32 163.84H66.7733L22.4 341.333Z" fill="#4C241D"/>
<path d="M399.421 135.486L292.987 162.424C284.254 164.634 275.384 159.346 273.174 150.613L271.102 142.423C268.892 133.69 274.179 124.821 282.912 122.61L389.347 95.6724C398.08 93.4622 406.949 98.7495 409.159 107.483L411.233 115.673C413.44 124.404 408.153 133.275 399.421 135.486Z" fill="#6B4F5B"/>
<path d="M288.993 169.75C278.652 169.75 269.206 162.76 266.554 152.291L264.48 144.101C261.354 131.727 268.873 119.12 281.24 115.994L387.673 89.0573C400.066 85.9272 412.646 93.4468 415.78 105.806L417.853 113.997C420.98 126.367 413.46 138.974 401.094 142.1L294.661 169.04C292.767 169.52 290.858 169.75 288.993 169.75ZM393.346 102.001C392.579 102.001 391.799 102.094 391.019 102.291L284.586 129.227C279.519 130.51 276.441 135.68 277.721 140.75L279.794 148.937C281.081 154.011 286.233 157.094 291.314 155.807L397.747 128.867C402.814 127.584 405.893 122.417 404.613 117.347L402.539 109.16C401.452 104.866 397.58 102.001 393.346 102.001Z" fill="#4C241D"/>
<path d="M61.445 238.933C60.8989 238.933 60.3391 238.87 59.7845 238.73C56.1237 237.817 53.8982 234.11 54.8181 230.449L68.4714 175.836C69.3845 172.179 73.0845 169.943 76.7453 170.87C80.4061 171.783 82.6316 175.49 81.7117 179.15L68.0584 233.764C67.2853 236.863 64.5051 238.933 61.445 238.933Z" fill="white"/>
<path d="M252.587 409.6H136.533C132.76 409.6 129.707 406.543 129.707 402.773C129.707 399.003 132.76 395.947 136.533 395.947H252.587C256.36 395.947 259.413 399.003 259.413 402.773C259.413 406.543 256.36 409.6 252.587 409.6Z" fill="#4C241D"/>
<path d="M136.533 95.5732C132.76 95.5732 129.707 92.5166 129.707 88.7466C129.707 84.9766 132.76 81.9199 136.533 81.9199C140.3 81.9199 143.36 78.8564 143.36 75.0932C143.36 71.33 140.3 68.2666 136.533 68.2666C132.76 68.2666 129.707 65.2099 129.707 61.4399C129.707 57.6699 132.76 54.6132 136.533 54.6132C140.3 54.6132 143.36 51.5498 143.36 47.7866C143.36 44.0234 140.3 40.9599 136.533 40.9599H102.4C98.6265 40.9599 95.5732 37.9033 95.5732 34.1332C95.5732 30.3632 98.6265 27.3066 102.4 27.3066C106.167 27.3066 109.227 24.2431 109.227 20.4799C109.227 19.3296 108.901 18.1896 108.261 17.0871C106.368 13.8273 107.467 9.65111 110.727 7.7533C113.98 5.85037 118.159 6.9597 120.06 10.2194C121.907 13.3887 122.88 16.9369 122.88 20.4799C122.88 22.8727 122.467 25.1698 121.713 27.3066H136.533C147.826 27.3066 157.013 36.4936 157.013 47.7866C157.013 53.026 155.034 57.8132 151.787 61.4399C155.034 65.0666 157.013 69.8538 157.013 75.0932C157.013 86.3863 147.826 95.5732 136.533 95.5732Z" fill="#BF7E68"/>
<path d="M102.4 95.5733C91.107 95.5733 81.92 86.3863 81.92 75.0933C81.92 72.7006 82.333 70.4034 83.0874 68.2667H61.44C50.147 68.2667 40.96 59.0797 40.96 47.7867C40.96 45.3939 41.373 43.0967 42.1274 40.96H27.3067C16.0136 40.96 6.82666 31.773 6.82666 20.48C6.82666 9.18699 16.0136 0 27.3067 0H76.986C80.7595 0 83.8127 3.05664 83.8127 6.82667C83.8127 10.5967 80.7595 13.6533 76.986 13.6533H27.3067C23.54 13.6533 20.48 16.7168 20.48 20.48C20.48 24.2432 23.54 27.3067 27.3067 27.3067H61.44C65.2134 27.3067 68.2667 30.3633 68.2667 34.1333C68.2667 37.9034 65.2134 40.96 61.44 40.96C57.6734 40.96 54.6133 44.0235 54.6133 47.7867C54.6133 51.5499 57.6734 54.6133 61.44 54.6133H102.4C106.173 54.6133 109.227 57.67 109.227 61.44C109.227 65.21 106.173 68.2667 102.4 68.2667C98.6334 68.2667 95.5733 71.3301 95.5733 75.0933C95.5733 78.8565 98.6334 81.92 102.4 81.92C106.173 81.92 109.227 84.9766 109.227 88.7467C109.227 92.5167 106.173 95.5733 102.4 95.5733Z" fill="#BF7E68"/>
</svg>
