<svg id="Capa_1" enable-background="new 0 0 512 512" height="512" viewBox="0 0 512 512" width="512" xmlns="http://www.w3.org/2000/svg"><g><path d="m122.601 271h-122.601v30h122.601c-.3-4.801-.601-9.901-.601-15 0-5.101.3-10.201.601-15z"/><path d="m62 211v30h65.4c2.401-10.201 5.7-20.4 9.6-30z"/><path d="m440.71 135.471 26.232-37.469-24.58-17.197-26.312 37.582c-25.015-14.857-53.534-24.278-84.05-26.625v-30.762h30v-30h-90v30h30v31.148c-30.491 2.36-58.916 11.646-83.888 26.47l-26.473-37.813-24.58 17.197 26.486 37.83c-24.425 20.116-44.187 45.661-56.545 75.168h75v30h-84.6c-2.401 9.6-3.9 19.799-4.799 30h59.399v30h-59.399c.899 10.199 2.399 20.4 4.799 30h84.6v30h-75c29.399 70.199 99 120 180 120 107.401 0 195-87.601 195-195 0-60.505-27.808-114.716-71.29-150.529zm-18.71 165.529h-120.044l.044-120h30l-.044 90h90.044z"/><path d="m62 331v30h75c-3.9-9.6-7.2-19.801-9.6-30z"/></g></svg>