<svg id="Glyph" viewBox="0 0 24 24" xmlns="http://www.w3.org/2000/svg"><path d="m20 8.6-8.38 8.38c-.29.29-.67.47-1.08.51l-2.93.27s-.08 0-.11 0c-.33 0-.65-.13-.88-.37-.26-.26-.39-.63-.36-1l.27-2.93c.04-.41.22-.79.51-1.08l8.36-8.38zm1.94-5.83-.71-.71c-1.07-1.07-2.82-1.07-3.89 0l-.88.88 4.6 4.6.88-.88c.52-.52.81-1.21.81-1.94s-.29-1.43-.81-1.94zm-1.19 16.24v-5.81c0-.41-.34-.75-.75-.75s-.75.34-.75.75v5.81c0 1.24-1.01 2.25-2.25 2.25h-12c-1.24 0-2.25-1.01-2.25-2.25v-12.01c0-1.24 1.01-2.25 2.25-2.25h5.81c.41 0 .75-.34.75-.75s-.34-.75-.75-.75h-5.81c-2.07 0-3.75 1.68-3.75 3.75v12c0 2.07 1.68 3.75 3.75 3.75h12c2.07 0 3.75-1.68 3.75-3.75z"/></svg>