<?xml version="1.0" encoding="UTF-8" standalone="no"?>
<!-- Created with Inkscape (http://www.inkscape.org/) -->

<svg
   version="1.1"
   id="svg3765"
   xml:space="preserve"
   width="682.66669"
   height="682.66669"
   viewBox="0 0 682.66669 682.66669"
   xmlns="http://www.w3.org/2000/svg"
   xmlns:svg="http://www.w3.org/2000/svg"><defs
     id="defs3769"><clipPath
       clipPathUnits="userSpaceOnUse"
       id="clipPath3779"><path
         d="M 0,512 H 512 V 0 H 0 Z"
         id="path3777" /></clipPath></defs><g
     id="g3771"
     transform="matrix(1.3333333,0,0,-1.3333333,0,682.66667)"><g
       id="g3773"><g
         id="g3775"
         clip-path="url(#clipPath3779)"><g
           id="g3781"
           transform="translate(401.4355,211.623)"><path
             d="m 0,0 v 0 c -30.182,13.438 -96.91,20.383 -96.91,20.383 h -97.051 c 0,0 -66.728,-6.945 -96.91,-20.383 h -0.001 c -24.378,-10.855 -40.085,-35.041 -40.085,-61.727 v -115.392 c 0,-14.914 12.09,-27.004 27.004,-27.004 H 13.082 c 14.913,0 27.004,12.09 27.004,27.004 V -61.727 C 40.086,-35.041 24.379,-10.855 0,0"
             style="fill:#fc5692;fill-opacity:1;fill-rule:nonzero;stroke:none"
             id="path3783" /></g><g
           id="g3785"
           transform="translate(401.4355,211.623)"><path
             d="m 0,0 v 0 c -30.182,13.438 -96.91,20.383 -96.91,20.383 l -25.884,-23.65 c 21.579,-2.905 60.351,-9.115 81.382,-18.479 h 10e-4 c 24.378,-10.855 40.085,-35.041 40.085,-61.727 v -115.392 c 0,-1.799 -0.18,-3.557 -0.516,-5.258 h 14.924 c 14.913,0 27.004,12.09 27.004,27.004 V -61.727 C 40.086,-35.041 24.379,-10.854 0,0"
             style="fill:#fb3580;fill-opacity:1;fill-rule:nonzero;stroke:none"
             id="path3787" /></g><g
           id="g3789"
           transform="translate(304.5254,232.0059)"><path
             d="M 0,0 V 75.839 H -97.051 V 0 l 48.526,-44.336 z"
             style="fill:#ffece3;fill-opacity:1;fill-rule:nonzero;stroke:none"
             id="path3791" /></g><g
           id="g3793"
           transform="translate(278.3613,208.3945)"><path
             d="M 0,0 0.28,-0.038 26.164,23.611 V 99.45 H -15.248 V 17.424 C -15.248,8.615 -8.731,1.172 0,0"
             style="fill:#ffddce;fill-opacity:1;fill-rule:nonzero;stroke:none"
             id="path3795" /></g><g
           id="g3797"
           transform="translate(207.4741,232.0059)"><path
             d="m 0,0 v 0 c 0,0 -15.162,-1.579 -34.298,-4.687 l 21.296,-38.542 c 5.628,-10.186 17.661,-14.989 28.757,-11.477 l 32.771,10.37 z"
             style="fill:#fb3580;fill-opacity:1;fill-rule:nonzero;stroke:none"
             id="path3799" /></g><g
           id="g3801"
           transform="translate(304.5254,232.0059)"><path
             d="M 0,0 V 0 C 0,0 15.162,-1.579 34.298,-4.687 L 13.002,-43.229 C 7.374,-53.415 -4.658,-58.218 -15.755,-54.706 l -32.77,10.37 z"
             style="fill:#fb3580;fill-opacity:1;fill-rule:nonzero;stroke:none"
             id="path3803" /></g><g
           id="g3805"
           transform="translate(386.6279,7.5)"><path
             d="m 0,0 v 111.142 c 0,8.288 -6.719,15.005 -15.007,15.005 H -246.25 c -8.287,0 -15.006,-6.717 -15.006,-15.005 V 0 Z"
             style="fill:#fce25c;fill-opacity:1;fill-rule:nonzero;stroke:none"
             id="path3807" /></g><g
           id="g3809"
           transform="translate(217.3755,11.1562)"><path
             d="m 0,0 c 0,34.933 -23.521,64.475 -55.559,73.618 -6.772,15.304 -20.125,27.066 -36.444,31.696 V -3.656 l 92.003,0 z"
             style="fill:#fcdd2e;fill-opacity:1;fill-rule:nonzero;stroke:none"
             id="path3811" /></g><g
           id="g3813"
           transform="translate(125.3721,61.8945)"><path
             d="m 0,0 v 0 c 0,-8.54 6.923,-15.463 15.462,-15.463 19.483,0 35.276,-15.793 35.276,-35.275 v -3.446 h -78.627 c -14.914,0 -27.004,12.091 -27.004,27.004 v 42.642 h 39.431 C -6.923,15.462 0,8.539 0,0"
             style="fill:#ffece3;fill-opacity:1;fill-rule:nonzero;stroke:none"
             id="path3815" /></g><g
           id="g3817"
           transform="translate(386.6279,61.8945)"><path
             d="m 0,0 v 0 c 0,-8.54 -6.923,-15.463 -15.462,-15.463 -19.482,0 -35.276,-15.793 -35.276,-35.275 v -3.446 H 27.89 c 14.913,0 27.004,12.091 27.004,27.004 V 15.462 H 15.462 C 6.923,15.462 0,8.539 0,0"
             style="fill:#ffece3;fill-opacity:1;fill-rule:nonzero;stroke:none"
             id="path3819" /></g><g
           id="g3821"
           transform="translate(441.5215,34.7148)"><path
             d="m 0,0 v 42.642 h -39.431 c -0.673,0 -1.331,-0.058 -1.981,-0.141 v -64.458 c 0,-1.726 -0.17,-3.411 -0.48,-5.047 h 14.888 C -12.091,-27.004 0,-14.913 0,0"
             style="fill:#ffddce;fill-opacity:1;fill-rule:nonzero;stroke:none"
             id="path3823" /></g><g
           id="g3825"
           transform="translate(313.4316,487.585)"><path
             d="m 0,0 -39.127,13.785 c -11.847,4.173 -24.763,4.173 -36.609,0 L -114.863,0 c -23.459,-8.265 -39.151,-30.43 -39.151,-55.302 V -91.835 H 39.15 v 36.533 C 39.15,-30.43 23.458,-8.265 0,0"
             style="fill:#fc5692;fill-opacity:1;fill-rule:nonzero;stroke:none"
             id="path3827" /></g><g
           id="g3829"
           transform="translate(313.4316,487.585)"><path
             d="m 0,0 -39.127,13.785 c -11.847,4.173 -24.763,4.173 -36.609,0 L -77.857,13.038 -40.852,0 c 23.459,-8.265 39.151,-30.43 39.151,-55.302 V -91.835 H 39.15 v 36.533 C 39.15,-30.43 23.458,-8.265 0,0"
             style="fill:#fb3580;fill-opacity:1;fill-rule:nonzero;stroke:none"
             id="path3831" /></g><g
           id="g3833"
           transform="translate(181.7646,381.8477)"><path
             d="m 0,0 h -12.457 c -10.57,0 -19.129,-8.571 -19.129,-19.141 v -9.054 c 0,-10.57 8.559,-19.141 19.129,-19.141 H 0 Z"
             style="fill:#ffddce;fill-opacity:1;fill-rule:nonzero;stroke:none"
             id="path3835" /></g><g
           id="g3837"
           transform="translate(330.2354,381.8477)"><path
             d="m 0,0 h 12.457 c 10.57,0 19.129,-8.571 19.129,-19.141 v -9.054 c 0,-10.57 -8.559,-19.141 -19.129,-19.141 H 0 Z"
             style="fill:#ffece3;fill-opacity:1;fill-rule:nonzero;stroke:none"
             id="path3839" /></g><g
           id="g3841"
           transform="translate(177.0728,398.3613)"><path
             d="m 0,0 0.117,-67.746 c 0,-48.87 55.031,-72.583 78.81,-73.025 23.779,0.442 78.811,24.155 78.811,73.025 L 157.855,0 Z"
             style="fill:#ffece3;fill-opacity:1;fill-rule:nonzero;stroke:none"
             id="path3843" /></g><g
           id="g3845"
           transform="translate(293.5156,398.3613)"><path
             d="m 0,0 -0.117,-67.746 c 0,-37.442 -32.303,-60.116 -58.105,-68.873 7.876,-2.673 15.146,-4.049 20.706,-4.152 23.779,0.442 78.811,24.155 78.811,73.025 L 41.412,0 Z"
             style="fill:#ffddce;fill-opacity:1;fill-rule:nonzero;stroke:none"
             id="path3847" /></g><g
           id="g3849"
           transform="translate(160.9976,374.2637)"><path
             d="m 0,0 c 62.957,17.47 127.045,17.47 190.005,0 5.46,-1.516 10.86,2.586 10.86,8.252 v 10e-4 c 0,13.1 -9.032,24.531 -21.816,27.395 C 123.29,48.144 66.714,48.143 10.955,35.648 -1.827,32.784 -10.86,21.352 -10.86,8.252 -10.86,2.586 -5.46,-1.516 0,0"
             style="fill:#fb3580;fill-opacity:1;fill-rule:nonzero;stroke:none"
             id="path3851" /></g><g
           id="g3853"
           transform="translate(227.0776,133.6484)"><path
             d="m 0,0 v -70.038 c 0,-3.203 3.523,-5.156 6.24,-3.459 l 20.521,12.819 c 1.322,0.826 3,0.826 4.322,0 l 20.521,-12.819 c 2.718,-1.697 6.241,0.256 6.241,3.459 V 0 Z"
             style="fill:#ba7b62;fill-opacity:1;fill-rule:nonzero;stroke:none"
             id="path3855" /></g><g
           id="g3857"
           transform="translate(347.2451,163.5039)"><path
             d="M 0,0 H 39.383"
             style="fill:none;stroke:#000000;stroke-width:15;stroke-linecap:round;stroke-linejoin:round;stroke-miterlimit:10;stroke-dasharray:none;stroke-opacity:1"
             id="path3859" /></g><g
           id="g3861"
           transform="translate(160.9976,374.2637)"><path
             d="m 0,0 c 62.957,17.47 127.045,17.47 190.005,0 5.46,-1.516 10.86,2.586 10.86,8.252 v 10e-4 c 0,13.1 -9.032,24.531 -21.816,27.395 C 123.29,48.144 66.714,48.143 10.955,35.648 -1.827,32.784 -10.86,21.352 -10.86,8.252 -10.86,2.586 -5.46,-1.516 0,0 Z"
             style="fill:none;stroke:#000000;stroke-width:15;stroke-linecap:round;stroke-linejoin:round;stroke-miterlimit:10;stroke-dasharray:none;stroke-opacity:1"
             id="path3863" /></g><g
           id="g3865"
           transform="translate(280.5117,499.1836)"><path
             d="m 0,0 -6.207,2.187 c -11.847,4.172 -24.763,4.172 -36.609,0 l -39.127,-13.786 c -23.459,-8.264 -39.151,-30.429 -39.151,-55.301 v -28.859"
             style="fill:none;stroke:#000000;stroke-width:15;stroke-linecap:round;stroke-linejoin:round;stroke-miterlimit:10;stroke-dasharray:none;stroke-opacity:1"
             id="path3867" /></g><g
           id="g3869"
           transform="translate(352.582,403.4248)"><path
             d="M 0,0 V 28.858 C 0,53.73 -15.692,75.896 -39.15,84.16"
             style="fill:none;stroke:#000000;stroke-width:15;stroke-linecap:round;stroke-linejoin:round;stroke-miterlimit:10;stroke-dasharray:none;stroke-opacity:1"
             id="path3871" /></g><g
           id="g3873"
           transform="translate(177.1074,378.3369)"><path
             d="m 0,0 0.083,-47.722 c 0,-48.87 55.031,-72.583 78.81,-73.025 23.778,0.442 78.81,24.155 78.81,73.025 L 157.785,0"
             style="fill:none;stroke:#000000;stroke-width:15;stroke-linecap:round;stroke-linejoin:round;stroke-miterlimit:10;stroke-dasharray:none;stroke-opacity:1"
             id="path3875" /></g><g
           id="g3877"
           transform="translate(334.8174,334.5127)"><path
             d="m 0,0 h 7.875 c 10.57,0 19.129,8.57 19.129,19.14 v 9.054 c 0,4.676 -1.68,8.956 -4.463,12.282"
             style="fill:none;stroke:#000000;stroke-width:15;stroke-linecap:round;stroke-linejoin:round;stroke-miterlimit:10;stroke-dasharray:none;stroke-opacity:1"
             id="path3879" /></g><g
           id="g3881"
           transform="translate(154.6416,374.9883)"><path
             d="m 0,0 c -2.783,-3.325 -4.463,-7.605 -4.463,-12.281 v -9.055 c 0,-10.569 8.559,-19.14 19.129,-19.14 h 7.876"
             style="fill:none;stroke:#000000;stroke-width:15;stroke-linecap:round;stroke-linejoin:round;stroke-miterlimit:10;stroke-dasharray:none;stroke-opacity:1"
             id="path3883" /></g><g
           id="g3885"
           transform="translate(207.4746,276.0928)"><path
             d="m 0,0 v -44.087 l 48.525,-44.336 48.526,44.336 V 0"
             style="fill:none;stroke:#000000;stroke-width:15;stroke-linecap:round;stroke-linejoin:round;stroke-miterlimit:10;stroke-dasharray:none;stroke-opacity:1"
             id="path3887" /></g><g
           id="g3889"
           transform="translate(207.4746,232.0059)"><path
             d="m 0,0 c 0,0 -66.728,-6.944 -96.91,-20.383 h -0.001 c -24.378,-10.854 -40.085,-35.041 -40.085,-61.726 v -115.393 c 0,-14.914 12.09,-27.004 27.004,-27.004 h 317.035 c 14.913,0 27.004,12.09 27.004,27.004 v 115.393 c 0,26.685 -15.707,50.872 -40.086,61.726 C 163.779,-6.944 97.051,0 97.051,0"
             style="fill:none;stroke:#000000;stroke-width:15;stroke-linecap:round;stroke-linejoin:round;stroke-miterlimit:10;stroke-dasharray:none;stroke-opacity:1"
             id="path3891" /></g><g
           id="g3893"
           transform="translate(173.1763,227.3193)"><path
             d="m 0,0 21.296,-38.542 c 5.628,-10.187 17.661,-14.989 28.757,-11.478 l 32.771,10.371"
             style="fill:none;stroke:#000000;stroke-width:15;stroke-linecap:round;stroke-linejoin:round;stroke-miterlimit:10;stroke-dasharray:none;stroke-opacity:1"
             id="path3895" /></g><g
           id="g3897"
           transform="translate(338.8232,227.3193)"><path
             d="m 0,0 -21.296,-38.542 c -5.628,-10.187 -17.66,-14.989 -28.757,-11.478 l -32.77,10.371"
             style="fill:none;stroke:#000000;stroke-width:15;stroke-linecap:round;stroke-linejoin:round;stroke-miterlimit:10;stroke-dasharray:none;stroke-opacity:1"
             id="path3899" /></g><g
           id="g3901"
           transform="translate(227.0776,133.6484)"><path
             d="m 0,0 v -70.038 c 0,-3.203 3.523,-5.156 6.24,-3.459 l 20.521,12.819 c 1.322,0.826 3,0.826 4.322,0 l 20.521,-12.819 c 2.718,-1.697 6.241,0.256 6.241,3.459 V 0"
             style="fill:none;stroke:#000000;stroke-width:15;stroke-linecap:round;stroke-linejoin:round;stroke-miterlimit:10;stroke-dasharray:none;stroke-opacity:1"
             id="path3903" /></g><g
           id="g3905"
           transform="translate(164.1533,133.6475)"><path
             d="m 0,0 h -23.775 c -8.288,0 -15.006,-6.718 -15.006,-15.006 v -56.748"
             style="fill:none;stroke:#000000;stroke-width:15;stroke-linecap:round;stroke-linejoin:round;stroke-miterlimit:10;stroke-dasharray:none;stroke-opacity:1"
             id="path3907" /></g><g
           id="g3909"
           transform="translate(386.6279,61.8945)"><path
             d="m 0,0 v 56.747 c 0,8.288 -6.719,15.006 -15.007,15.006 h -172.178"
             style="fill:none;stroke:#000000;stroke-width:15;stroke-linecap:round;stroke-linejoin:round;stroke-miterlimit:10;stroke-dasharray:none;stroke-opacity:1"
             id="path3911" /></g><g
           id="g3913"
           transform="translate(70.479,77.3564)"><path
             d="m 0,0 h 39.431 c 8.539,0 15.462,-6.923 15.462,-15.462 0,-8.54 6.923,-15.463 15.462,-15.463 19.483,0 35.276,-15.793 35.276,-35.275 v -3.446"
             style="fill:none;stroke:#000000;stroke-width:15;stroke-linecap:round;stroke-linejoin:round;stroke-miterlimit:10;stroke-dasharray:none;stroke-opacity:1"
             id="path3915" /></g><g
           id="g3917"
           transform="translate(441.5215,77.3564)"><path
             d="m 0,0 h -39.432 c -8.539,0 -15.462,-6.923 -15.462,-15.462 0,-8.54 -6.922,-15.463 -15.461,-15.463 -19.483,0 -35.277,-15.793 -35.277,-35.275 v -3.446"
             style="fill:none;stroke:#000000;stroke-width:15;stroke-linecap:round;stroke-linejoin:round;stroke-miterlimit:10;stroke-dasharray:none;stroke-opacity:1"
             id="path3919" /></g></g></g></g></svg>
