<svg width="512" height="466" viewBox="0 0 512 466" fill="none" xmlns="http://www.w3.org/2000/svg">
<path d="M125.705 401.582H489.468C497.77 401.582 504.499 408.312 504.499 416.613V437.379C504.499 445.681 497.769 452.41 489.468 452.41H22.532C14.23 452.41 7.5 445.68 7.5 437.379V416.613C7.5 408.311 14.23 401.582 22.532 401.582H90.559" stroke="#1B113F" stroke-width="26" stroke-miterlimit="10" stroke-linecap="round" stroke-linejoin="round"/>
<path d="M50.8999 401.58C50.8999 293.68 138.37 206.21 246.26 206.21H265.05C279.22 206.21 293.03 207.72 306.34 210.58" stroke="#1B113F" stroke-width="26" stroke-miterlimit="10" stroke-linecap="round" stroke-linejoin="round"/>
<path d="M331.17 217.69C358.52 227.52 383.05 243.29 403.2 263.43C438.55 298.79 460.42 347.63 460.42 401.58" stroke="#1B113F" stroke-width="26" stroke-miterlimit="10" stroke-linecap="round" stroke-linejoin="round"/>
<path d="M236.49 206.45V172.37C236.49 165.63 241.96 160.17 248.7 160.17H262.61C269.35 160.17 274.82 165.63 274.82 172.37V206.45" stroke="#1B113F" stroke-width="26" stroke-miterlimit="10" stroke-linecap="round" stroke-linejoin="round"/>
<path d="M139.523 45.0891C139.523 45.0891 116.819 65.0541 119.381 96.1151C121.7 124.218 155.636 138.186 155.636 167.282" stroke="#1B113F" stroke-width="26" stroke-miterlimit="10" stroke-linecap="round" stroke-linejoin="round"/>
<path d="M160.783 96.1152C163.102 124.218 197.038 138.186 197.038 167.282" stroke="#1B113F" stroke-width="26" stroke-miterlimit="10" stroke-linecap="round" stroke-linejoin="round"/>
<path d="M467.782 13.5891H487.995C496.802 13.5891 503.941 20.7281 503.941 29.5351V176.532C503.941 185.339 496.802 192.478 487.995 192.478H345.344L326.148 226.627C320.812 236.12 306.344 232.332 306.344 221.442V29.5351C306.344 20.7281 313.483 13.5891 322.29 13.5891H432.672" stroke="#1B113F" stroke-width="26" stroke-miterlimit="10" stroke-linecap="round" stroke-linejoin="round"/>
<path d="M430.617 56.1242L405.142 66.6542L379.667 56.1242C352.733 44.5412 328.642 79.9662 349.373 100.745L394.791 147.593C400.455 153.435 409.829 153.435 415.493 147.593L460.911 100.745C481.65 79.9522 457.536 44.5462 430.617 56.1242Z" fill="#F2B705" stroke="black" stroke-width="15" stroke-miterlimit="10" stroke-linecap="round" stroke-linejoin="round"/>
</svg>
