<?xml version="1.0" encoding="UTF-8" standalone="no"?>
<!-- Created with Inkscape (http://www.inkscape.org/) -->

<svg
   version="1.1"
   id="svg2637"
   width="682.66669"
   height="682.66669"
   viewBox="0 0 682.66669 682.66669"
   xmlns="http://www.w3.org/2000/svg"
   xmlns:svg="http://www.w3.org/2000/svg">
  <defs
     id="defs2641">
    <clipPath
       clipPathUnits="userSpaceOnUse"
       id="clipPath2651">
      <path
         d="M 0,512 H 512 V 0 H 0 Z"
         id="path2649" />
    </clipPath>
  </defs>
  <g
     id="g2643"
     transform="matrix(1.3333333,0,0,-1.3333333,0,682.66667)">
    <g
       id="g2645">
      <g
         id="g2647"
         clip-path="url(#clipPath2651)">
        <g
           id="g2653"
           transform="translate(198.4648,329.9521)">
          <path
             d="m 0,0 c 0,0 102,-39 82,-130 0,0 31.76,10.005 48.5,39 39.064,-59.73 56.457,-178.143 -63.079,-224.616 -3.15,-1.588 -6.332,-2.994 -9.525,-4.201 107.328,3.567 214.529,77.534 209.467,209.048 -13.1,-23.035 -72.701,-22.649 -72.701,-22.649 53.702,117.734 -24.886,175.322 -24.886,175.322 8.459,-74.376 -177.743,-85.183 -85.787,130.145 -197.782,-37.112 -167.656,-291.775 -167.656,-291.775 -22.266,3.839 -65.492,49.909 -65.492,49.909 -24.284,-174.389 89.401,-252.516 204.113,-250.08 -0.092,0.003 -0.184,0.008 -0.276,0.012 -89.885,0.511 -155.797,94.374 -109.335,181.503 C -33.526,-98.756 10.564,-39.424 0,0"
             style="fill:#fd4848;fill-opacity:1;fill-rule:evenodd;stroke:none"
             id="path2655" />
        </g>
        <g
           id="g2657"
           transform="translate(280.4648,199.9521)">
          <path
             d="m 0,0 c 20,91 -82,130 -82,130 10.564,-39.424 -33.526,-98.756 -54.657,-138.382 -46.462,-87.129 19.45,-180.992 109.335,-181.503 -71.599,3.392 -139.496,133.125 -20.377,200.318 -30.362,-71.913 36.181,-110.561 74.824,-64.716 44.147,-44.53 4.92,-107.825 -41.704,-131.333 C 104.957,-139.143 87.564,-20.73 48.5,39 31.76,10.005 0,0 0,0"
             style="fill:#ff8244;fill-opacity:1;fill-rule:evenodd;stroke:none"
             id="path2659" />
        </g>
        <g
           id="g2661"
           transform="translate(307.5898,145.6689)">
          <path
             d="m 0,0 c -38.643,-45.845 -105.186,-7.197 -74.824,64.716 -119.119,-67.193 -51.222,-196.925 20.377,-200.318 0.246,-0.001 0.492,-0.002 0.738,-0.002 4.146,1.346 8.147,2.771 12.005,4.271 C 4.92,-107.825 44.147,-44.53 0,0"
             style="fill:#ffba4a;fill-opacity:1;fill-rule:evenodd;stroke:none"
             id="path2663" />
        </g>
        <g
           id="g2665"
           transform="translate(186.6553,455.1919)">
          <path
             d="m 0,0 c 0.111,0.103 0.224,0.209 0.335,0.313 m 33.494,24.419 c 15.705,9.695 40.901,18.125 61.97,22.078 -91.956,-215.329 94.245,-204.521 85.786,-130.145 0,0 78.589,-57.588 24.886,-175.323 0,0 59.602,-0.385 72.701,22.65 10.519,-273.287 -463.732,-298.079 -416.521,40.951 0,0 43.225,-46.069 65.492,-49.909 0,0 -15.991,135.214 51.841,222.945"
             style="fill:none;stroke:#000000;stroke-width:20;stroke-linecap:round;stroke-linejoin:round;stroke-miterlimit:22.926;stroke-dasharray:none;stroke-opacity:1"
             id="path2667" />
        </g>
        <g
           id="g2669"
           transform="translate(256,10)">
          <path
             d="M 0,0 C -72.618,0 -143.937,132.299 -23.234,200.386 -53.596,128.472 12.947,89.824 51.59,135.669 98.832,88.018 50.602,18.88 0,0 Z"
             style="fill:none;stroke:#000000;stroke-width:20;stroke-linecap:round;stroke-linejoin:round;stroke-miterlimit:22.926;stroke-dasharray:none;stroke-opacity:1"
             id="path2671" />
        </g>
        <g
           id="g2673"
           transform="translate(358.0952,136.2041)">
          <path
             d="m 0,0 c -0.002,-0.084 -0.005,-0.168 -0.008,-0.252 m -8.226,-42.81 c -12.901,-34.668 -42.056,-65.579 -95.981,-83.077 -90.262,0 -156.661,94.138 -110.073,181.505 21.131,39.626 65.222,98.958 54.658,138.383 0,0 102,-39 82,-130 0,0 31.759,10.004 48.5,39 12.935,-19.78 23.495,-45.994 27.493,-73.9"
             style="fill:none;stroke:#000000;stroke-width:20;stroke-linecap:round;stroke-linejoin:round;stroke-miterlimit:22.926;stroke-dasharray:none;stroke-opacity:1"
             id="path2675" />
        </g>
      </g>
    </g>
  </g>
</svg>
