<svg width="304" height="512" viewBox="0 0 304 512" fill="none" xmlns="http://www.w3.org/2000/svg">
<path d="M263.84 28.48L240 88C240 79.2 232.8 72 224 72H213.28L236.16 17.2C238.48 11.6 243.92 8 249.92 8C258.48 8 264.88 15.04 264.88 22.96C264.88 24.8 264.56 26.64 263.84 28.48Z" fill="#B16612"/>
<path d="M266.8 247.2L250.16 474.32C248.96 491.04 235.04 504 218.24 504H85.7598C68.9598 504 55.0398 491.04 53.8398 474.32L38.3198 262.16C58.0798 241.84 97.6798 215.36 152 248C199.04 276.24 240.56 262.96 266.8 247.2Z" fill="#B16612"/>
<path d="M272 176L266.8 247.2C240.56 262.96 199.04 276.24 152 248C97.68 215.36 58.08 241.84 38.32 262.16L32 176H272Z" fill="#F5A933"/>
<path d="M94.5838 233.088C69.3838 235.52 50.2238 249.912 38.3198 262.16L53.8398 474.32C55.0398 491.04 68.9598 504 85.7598 504H218.24C235.04 504 248.96 491.04 250.16 474.32L250.864 464.744C127.664 459.704 97.1198 341.92 94.5838 233.088Z" fill="#904B17"/>
<path d="M95.552 176H32L38.32 262.16C50.232 249.912 69.384 235.52 94.584 233.088C94.128 213.52 94.576 194.272 95.552 176Z" fill="#D28717"/>
<path d="M240 104H256C264.8 104 272 111.2 272 120V144H32V120C32 111.2 39.2 104 48 104H64V87.9999C64 79.1999 71.2 71.9999 80 71.9999H88C88 71.9999 102.24 13.5199 144 23.9999C160 27.9999 172 23.9999 180 19.0399C185.2 15.7599 192 19.7599 192 25.9199V55.9999C192 64.7999 199.2 71.9999 208 71.9999H213.28H224C232.8 71.9999 240 79.1999 240 87.9999V104Z" fill="#FFF2DE"/>
<path d="M132.4 107.2C135.36 106.8 137.12 106.64 137.12 106.64C137.12 106.64 135.2 106.96 132.4 107.2Z" fill="#F9D2A7"/>
<path d="M149.776 109.48C136 116 79.92 117.04 78.8 144H32V120C32 111.2 39.2 104 48 104H64V88C64 79.2 71.2 72 80 72H88C88 72 102.24 13.52 144 24C148.48 25.12 152.64 25.6 156.48 25.6C142.8 36.32 115.52 57.232 132.4 64.592L157.12 67.76C157.12 67.76 118.128 73.224 109.728 93.704C103.248 109.304 130.96 107.2 149.776 109.48Z" fill="#F9D2A7"/>
<path d="M280 144C288.8 144 296 151.2 296 160C296 164.4 294.24 168.4 291.28 171.28C288.4 174.24 284.4 176 280 176H272H32H24C15.2 176 8 168.8 8 160C8 155.6 9.76 151.6 12.72 148.72C15.6 145.76 19.6 144 24 144H32H272H280Z" fill="#B16612"/>
<path d="M296 160C296 164.4 294.24 168.4 291.28 171.28C288.4 174.24 284.4 176 280 176H24C15.2 176 8 168.8 8 160C8 155.6 9.76 151.6 12.72 148.72C15.6 145.76 19.6 144 24 144H35.52C35.52 152.8 42.72 160 51.52 160H296Z" fill="#904B17"/>
<path d="M137.12 106.64C137.12 106.64 135.2 106.96 132.4 107.2C135.36 106.8 137.12 106.64 137.12 106.64Z" fill="#F9D2A7"/>
<path d="M191.688 11.848C186.6 9.024 180.64 9.168 175.744 12.224C167.04 17.656 157.016 19 145.936 16.24C133.768 13.176 122.464 14.768 112.296 20.928C94.696 31.576 85.6 53.344 82.04 64C82.04 64 56 65.04 56 88V96H48C34.768 96 24 106.768 24 120V136C10.768 136 0 146.768 0 160C0 173.232 10.768 184 24 184H24.56L45.848 474.92C47.376 495.712 64.896 512 85.744 512H218.256C239.096 512 256.624 495.712 258.152 474.92L279.44 184H280C293.232 184 304 173.232 304 160C304 146.768 293.232 136 280 136V120C280 106.768 269.232 96 256 96H248V89.536L271.24 31.448C274.072 24.368 273.208 16.384 268.936 10.072C264.664 3.768 257.568 0 249.952 0C240.672 0 232.36 5.528 228.792 14.104L207.984 64C203.584 63.984 200 60.408 200 56V25.928C200 20.088 196.816 14.696 191.688 11.848ZM242.192 473.752C241.28 486.224 230.768 496 218.256 496H85.744C73.24 496 62.728 486.224 61.808 473.752L46.56 265.288C67.856 244.64 102.056 227.328 147.888 254.864C169.344 267.744 189.72 272.592 208.232 272.592C226.896 272.592 243.672 267.672 257.752 261.088L242.192 473.752ZM259.12 242.384C234.448 256.168 197.584 266.04 156.12 241.144C106.688 211.448 68.448 227.12 45.096 245.376L40.608 184H263.392L259.12 242.384ZM288 160C288 164.416 284.408 168 280 168H24C19.592 168 16 164.416 16 160C16 155.584 19.592 152 24 152H280C284.408 152 288 155.584 288 160ZM243.552 20.256C245.528 15.512 252.8 14.768 255.688 19.048C257 20.976 257.256 23.336 256.384 25.512L238.864 69.312C235.08 66.296 230.4 64.408 225.264 64.136L243.552 20.256ZM208 80H224C228.408 80 232 83.584 232 88V96H224C219.584 96 216 99.576 216 104C216 108.424 219.584 112 224 112H256C260.408 112 264 115.584 264 120V136H40V120C40 115.584 43.592 112 48 112H88C92.416 112 96 108.424 96 104C96 99.576 92.416 96 88 96H72V88C72 83.584 75.592 80 80 80H112C116.416 80 120 76.424 120 72C120 67.576 116.416 64 112 64H99.072C102.752 54.68 109.656 41.2 120.616 34.592C127.088 30.704 134.104 29.776 142.056 31.76C161.312 36.584 175.616 31.168 184 25.928V56C184 69.232 194.768 80 208 80Z" fill="black"/>
<path d="M222.848 400.04C218.456 399.512 214.544 402.848 214.128 407.24L208.728 464H200C195.584 464 192 467.576 192 472C192 476.424 195.584 480 200 480H216C220.128 480 223.576 476.864 223.968 472.76L230.064 408.76C230.48 404.36 227.248 400.456 222.848 400.04Z" fill="black"/>
<path d="M226.664 360.04C222.264 359.52 218.36 362.848 217.944 367.24L216.424 383.24C216.008 387.64 219.224 391.648 223.632 391.96C229.464 392.368 231.96 388.896 232.352 384.76L233.872 368.76C234.288 364.36 231.064 360.456 226.664 360.04Z" fill="black"/>
<path d="M75.2002 320.016C70.7922 320.312 67.4562 324.128 67.7522 328.528L70.4162 368.528C70.6962 372.752 74.2162 375.984 78.3922 376C84.0562 376.016 86.6802 371.872 86.3842 367.472L83.7202 327.472C83.4242 323.064 79.5602 319.784 75.2002 320.016Z" fill="black"/>
<path d="M74.1279 312C80.0479 312 82.4159 307.872 82.1199 303.472L81.0559 287.472C80.7599 283.056 76.9199 279.832 72.5439 280.016C68.1359 280.312 64.7999 284.128 65.0959 288.528L66.1599 304.528C66.4319 308.76 69.9519 312 74.1279 312Z" fill="black"/>
</svg>
