<svg width="516" height="684" viewBox="0 0 516 684" fill="none" xmlns="http://www.w3.org/2000/svg">
<path d="M451.596 244.825V168.283C451.596 162.619 447.004 158.025 441.338 158.025H208.838C203.173 158.025 198.581 162.619 198.581 168.283V244.825H451.596Z" fill="#DBEDFF"/>
<path d="M266.796 158.026H208.837C203.173 158.026 198.58 162.618 198.58 168.283V244.826H258.369V172.178C258.369 166.093 261.787 160.769 266.796 158.026Z" fill="#B5DCFF"/>
<path d="M503.161 20.6104C497.901 11.4451 486.205 8.28238 477.045 13.5437L398.257 58.7717C384.287 66.7917 375.608 81.7824 375.608 97.8917V244.804H413.871V97.8917C413.871 95.4477 415.188 93.1731 417.307 91.9557L496.095 46.7264C505.257 41.4664 508.421 29.7744 503.161 20.6104Z" fill="#B5DCFF"/>
<path d="M411.937 50.9197L398.258 58.7717C384.288 66.7917 375.609 81.7824 375.609 97.8917V244.804H395.276V85.8917C395.276 72.2371 401.528 59.4024 411.937 50.9197Z" fill="#8BCAFF"/>
<path d="M212.262 628.088L214.242 666.638C220.398 671.06 227.94 673.672 236.098 673.672H414.078C434.799 673.672 451.595 656.874 451.595 636.154V628.088H212.262Z" fill="#FF9B00"/>
<path d="M212.262 628.088L214.242 666.638C220.398 671.06 227.94 673.672 236.098 673.672H266.796C261.787 670.929 258.37 665.605 258.37 659.52V628.088H212.262Z" fill="#FC8900"/>
<path d="M198.581 242.136V361.675C270.723 376.084 325.087 439.762 325.087 516.143C325.087 561.322 306.063 602.052 275.597 630.776H451.595V242.136H198.581Z" fill="#FFB640"/>
<path d="M451.596 242.136H198.581V361.675L212.4 630.776H451.596V242.136Z" fill="#FFB640"/>
<path d="M198.581 242.136V361.675L212.399 630.776H258.37V242.136H198.581Z" fill="#FF9B00"/>
<path d="M325.088 516.144C325.088 429.142 254.56 358.614 167.56 358.614C80.5583 358.614 10.0303 429.142 10.0303 516.144C10.0303 603.144 80.5583 673.672 167.56 673.672C254.56 673.672 325.088 603.144 325.088 516.144Z" fill="#FFD086"/>
<path d="M96.6974 516.143C96.6974 444.171 144.964 383.476 210.892 364.652C197.125 360.722 182.588 358.615 167.559 358.615C80.5588 358.615 10.0308 429.143 10.0308 516.143C10.0308 603.144 80.5588 673.672 167.559 673.672C182.588 673.672 197.125 671.564 210.892 667.635C144.964 648.811 96.6974 588.115 96.6974 516.143Z" fill="#FFC365"/>
<path d="M288.555 516.144C288.555 449.318 234.383 395.146 167.559 395.146C100.735 395.146 46.5635 449.318 46.5635 516.144C46.5635 582.968 100.735 637.14 167.559 637.14C234.383 637.14 288.555 582.968 288.555 516.144Z" fill="#FFC365"/>
<path d="M152.256 396.107C92.6563 403.629 46.563 454.503 46.563 516.143C46.563 577.784 92.6563 628.659 152.256 636.18C118.275 607.285 96.6977 564.244 96.6977 516.143C96.6977 468.043 118.275 425.001 152.256 396.107Z" fill="#FFB640"/>
<path d="M275.533 630.777C258.293 647.027 237.408 659.451 214.21 666.639C220.366 671.06 227.909 673.672 236.068 673.672H414.048C434.768 673.672 451.565 656.875 451.565 636.155V630.777H275.533Z" stroke="black" stroke-width="20" stroke-miterlimit="10" stroke-linecap="round" stroke-linejoin="round"/>
<path d="M503.131 20.6105C497.871 11.4452 486.175 8.28254 477.015 13.5439L398.227 58.7719C384.256 66.7919 375.578 81.7825 375.578 97.8919V242.137H413.84V97.8919C413.84 95.4479 415.158 93.1732 417.276 91.9559L496.064 46.7266C505.227 41.4666 508.391 29.7745 503.131 20.6105Z" stroke="black" stroke-width="20" stroke-miterlimit="10" stroke-linecap="round" stroke-linejoin="round"/>
<path d="M325.057 516.144C325.057 429.142 254.529 358.614 167.529 358.614C80.528 358.614 10 429.142 10 516.144C10 603.144 80.528 673.672 167.529 673.672C254.529 673.672 325.057 603.144 325.057 516.144Z" stroke="black" stroke-width="20" stroke-miterlimit="10" stroke-linecap="round" stroke-linejoin="round"/>
<path d="M288.525 516.144C288.525 449.318 234.353 395.146 167.529 395.146C100.705 395.146 46.5327 449.318 46.5327 516.144C46.5327 582.968 100.705 637.14 167.529 637.14C234.353 637.14 288.525 582.968 288.525 516.144Z" stroke="black" stroke-width="20" stroke-miterlimit="10" stroke-linecap="round" stroke-linejoin="round"/>
<path d="M167.529 395.147V637.14" stroke="black" stroke-width="20" stroke-miterlimit="10" stroke-linecap="round" stroke-linejoin="round"/>
<path d="M46.5327 516.144H288.525" stroke="black" stroke-width="20" stroke-miterlimit="10" stroke-linecap="round" stroke-linejoin="round"/>
<path d="M81.9717 430.586L253.086 601.701" stroke="black" stroke-width="20" stroke-miterlimit="10" stroke-linecap="round" stroke-linejoin="round"/>
<path d="M81.9717 601.701L253.086 430.586" stroke="black" stroke-width="20" stroke-miterlimit="10" stroke-linecap="round" stroke-linejoin="round"/>
<path d="M295.331 158.026H208.807C203.141 158.026 198.549 162.618 198.549 168.283V242.136H451.565V168.283C451.565 162.618 446.972 158.026 441.308 158.026H341.997" stroke="black" stroke-width="20" stroke-miterlimit="10" stroke-linecap="round" stroke-linejoin="round"/>
<path d="M451.565 413.124V242.137H198.549V361.676" stroke="black" stroke-width="20" stroke-miterlimit="10" stroke-linecap="round" stroke-linejoin="round"/>
<path d="M275.566 630.777H451.565V459.79" stroke="black" stroke-width="20" stroke-miterlimit="10" stroke-linecap="round" stroke-linejoin="round"/>
</svg>
