<?xml version="1.0"?>
<svg xmlns="http://www.w3.org/2000/svg" viewBox="0 0 32 32" width="512" height="512"><g id="Layer_2" data-name="Layer 2"><path d="M29.22,20.2l-4.32-4.36a.19.19,0,0,0-.17-.07.24.24,0,0,0-.17.08L21.68,18.9a2,2,0,0,1-1.45.63h0a2,2,0,0,1-1.45-.63L12.6,12.31a.24.24,0,0,0-.32,0l-9.62,7.5L1.42,18.2,11,10.7a2.23,2.23,0,0,1,3,.24l6.17,6.59,2.86-3.05a2.22,2.22,0,0,1,1.6-.71,2.18,2.18,0,0,1,1.62.66l4.32,4.36Z"/><path d="M27.08,31H4.92A3.92,3.92,0,0,1,1,27.08V4.92A3.92,3.92,0,0,1,4.92,1H27.08A3.92,3.92,0,0,1,31,4.92V27.08A3.92,3.92,0,0,1,27.08,31ZM4.92,3A1.92,1.92,0,0,0,3,4.92V27.08A1.92,1.92,0,0,0,4.92,29H27.08A1.92,1.92,0,0,0,29,27.08V4.92A1.92,1.92,0,0,0,27.08,3Z"/><circle cx="20.33" cy="9.83" r="2"/><path d="M2,19.5l9.53-7.67,1.76-.21,5.77,6.16s1,1.37,1.85.43l2.87-3.05s.57-1.25,1.79,0S30,20.5,30,20.5l-.07,7.23S29.63,30,26.69,30s-22-.31-22-.31S2,30.35,2,27.08,2,19.5,2,19.5Z"/></g></svg>
