<svg width="512" height="512" viewBox="0 0 512 512" fill="none" xmlns="http://www.w3.org/2000/svg">
<g clip-path="url(#clip0_208_114)">
<path opacity="0.1" d="M256 16L231.44 35.84L416 192V488H464V192L256 16Z" fill="black"/>
<path d="M208 272H304C312.487 272 320.626 275.371 326.627 281.373C332.629 287.374 336 295.513 336 304V496H176V304C176 295.513 179.371 287.374 185.373 281.373C191.374 275.371 199.513 272 208 272Z" fill="#F2B705"/>
<path opacity="0.1" d="M304 272H256C264.487 272 272.626 275.371 278.627 281.373C284.629 287.374 288 295.513 288 304V496H336V304C336 295.513 332.629 287.374 326.627 281.373C320.626 275.371 312.487 272 304 272Z" fill="black"/>
<path d="M240 400C248.837 400 256 392.837 256 384C256 375.163 248.837 368 240 368C231.163 368 224 375.163 224 384C224 392.837 231.163 400 240 400Z" fill="white"/>
<path d="M506.24 195.68L424 127.2V71.9999C424 67.7564 422.314 63.6868 419.314 60.6862C416.313 57.6856 412.243 55.9999 408 55.9999C403.757 55.9999 399.687 57.6856 396.686 60.6862C393.686 63.6868 392 67.7564 392 71.9999V100.48L286.72 12.7999C278.095 5.61589 267.225 1.68188 256 1.68188C244.775 1.68188 233.905 5.61589 225.28 12.7999L5.76001 195.68C2.49255 198.396 0.43776 202.298 0.0476846 206.529C-0.342391 210.76 0.964197 214.972 3.68001 218.24C6.39583 221.507 10.2984 223.562 14.5292 223.952C18.7601 224.342 22.9725 223.036 26.24 220.32L245.76 37.3599C248.635 34.9652 252.258 33.6539 256 33.6539C259.742 33.6539 263.365 34.9652 266.24 37.3599L448 188.8V464C448 468.243 446.314 472.313 443.314 475.314C440.313 478.314 436.243 480 432 480H352V304C352 291.269 346.943 279.06 337.941 270.059C328.939 261.057 316.73 256 304 256H208C195.27 256 183.061 261.057 174.059 270.059C165.057 279.06 160 291.269 160 304V480H80C75.7566 480 71.6869 478.314 68.6863 475.314C65.6857 472.313 64 468.243 64 464V272C64 267.756 62.3143 263.687 59.3137 260.686C56.3131 257.686 52.2435 256 48 256C43.7566 256 39.6869 257.686 36.6863 260.686C33.6857 263.687 32 267.756 32 272V464C32 476.73 37.0571 488.939 46.0589 497.941C55.0606 506.943 67.2696 512 80 512H432C444.73 512 456.939 506.943 465.941 497.941C474.943 488.939 480 476.73 480 464V215.52L485.76 220.32C488.639 222.705 492.262 224.007 496 224C499.295 224.006 502.511 222.996 505.21 221.106C507.908 219.216 509.958 216.539 511.078 213.441C512.198 210.342 512.335 206.974 511.469 203.795C510.603 200.616 508.777 197.782 506.24 195.68ZM192 480V304C192 299.756 193.686 295.687 196.686 292.686C199.687 289.686 203.757 288 208 288H304C308.243 288 312.313 289.686 315.314 292.686C318.314 295.687 320 299.756 320 304V480H192Z" fill="#1B113F"/>
</g>
<defs>
<clipPath id="clip0_208_114">
<rect width="512" height="512" fill="white"/>
</clipPath>
</defs>
</svg>
