<svg id="Layer_1" height="512" viewBox="0 0 32 32" width="512" xmlns="http://www.w3.org/2000/svg" data-name="Layer 1"><path d="m17.542 30h8.409c1 0 1.879-.663 2.154-1.624l1.079-3.773c.409-1.431-.665-2.856-2.154-2.856h-10.566c-1.488 0-2.563 1.425-2.154 2.856l1.079 3.773c.275.961 1.154 1.624 2.154 1.624z" fill="#f2b705"/><g fill="#1b113f"><g><circle cx="10.453" cy="7.821" r="1"/><rect height="2" rx="1" width="9.914" x="13.573" y="6.821"/><circle cx="10.453" cy="11.822" r="1"/><rect height="2" rx="1" width="9.914" x="13.573" y="10.822"/></g><circle cx="19.026" cy="24.873" r="1"/><circle cx="24.487" cy="24.873" r="1"/><rect height="2" rx="1" width="5.911" x="9.453" y="16.284"/><path d="m25.951 31h-8.409c-1.438 0-2.72-.966-3.115-2.349l-1.079-3.774c-.282-.986-.089-2.022.528-2.841.618-.819 1.561-1.289 2.586-1.289h10.566c1.026 0 1.969.47 2.587 1.289s.811 1.854.528 2.841l-1.079 3.773c-.396 1.384-1.677 2.35-3.115 2.35zm-9.488-8.253c-.393 0-.753.18-.99.493s-.31.71-.202 1.088l1.079 3.773c.151.528.642.898 1.192.898h8.409c.551 0 1.041-.37 1.192-.899l1.079-3.772c.108-.378.034-.774-.202-1.088s-.597-.493-.99-.493h-10.566z"/><path d="m25.694 22.747h-7.895v-3.948c0-2.177 1.771-3.947 3.947-3.947s3.948 1.771 3.948 3.947zm-5.895-2h3.895v-1.948c0-1.073-.874-1.947-1.948-1.947s-1.947.874-1.947 1.947z"/><path d="m11.283 27h-1.283c-2.761 0-5-2.239-5-5v-16c0-2.761 2.239-5 5-5h12c2.761 0 5 2.239 5 5v8.484c0 .552-.448 1-1 1-.552 0-1-.448-1-1v-8.484c0-1.657-1.343-3-3-3h-12c-1.657 0-3 1.343-3 3v16c0 1.657 1.343 3 3 3h1.283c.552 0 1 .448 1 1 0 .552-.448 1-1 1z"/></g></svg>