<svg width="683" height="683" viewBox="0 0 683 683" fill="none" xmlns="http://www.w3.org/2000/svg">
<mask id="mask0_203_202" style="mask-type:luminance" maskUnits="userSpaceOnUse" x="0" y="0" width="683" height="683">
<path d="M0 0.00012207H682.667V682.667H0V0.00012207Z" fill="white"/>
</mask>
<g mask="url(#mask0_203_202)">
<path d="M241.281 213.41C245.456 210.735 250.41 209.174 255.736 209.174C259.198 209.174 262.504 209.836 265.544 211.028C266.077 207.551 267.297 204.306 269.03 201.403L156.924 19.8377C151.02 10.275 138.398 7.44968 128.981 13.5843C119.564 19.7177 117.045 32.4043 123.405 41.671L241.281 213.41Z" fill="#6E563D"/>
<path d="M180.013 256.418C186.156 256.418 191.802 258.499 196.328 261.971L51.0249 98.2794C43.5649 89.8741 30.6462 89.2621 22.4236 96.9234C14.2009 104.586 13.9009 117.517 21.7596 125.551L159.318 266.189C164.242 260.227 171.677 256.418 180.013 256.418Z" fill="#6E563D"/>
<path d="M244.034 608.035H492.156V652.329C492.156 663.374 483.201 672.329 472.156 672.329H264.034C252.989 672.329 244.034 663.374 244.034 652.329V608.035Z" fill="#B32425"/>
<path d="M456.156 608.035V652.329C456.156 663.374 447.202 672.329 436.156 672.329H472.156C483.202 672.329 492.156 663.374 492.156 652.329V608.035H456.156Z" fill="#9E1219"/>
<path d="M69.5806 336.484C69.5806 457.081 141.101 560.965 244.034 608.064V608.036H492.157V608.064C595.09 560.965 666.61 457.081 666.61 336.484H69.5806Z" fill="#F2433B"/>
<path d="M630.611 336.484C630.611 457.058 559.117 560.924 456.217 608.036H492.156V608.064C595.091 560.965 666.611 457.081 666.611 336.484H630.611Z" fill="#D72E2E"/>
<path d="M651.74 336.483C653.44 332.958 654.394 329.006 654.394 324.83C654.394 309.996 642.368 297.972 627.535 297.972C627.464 297.972 627.395 297.976 627.324 297.978C627.459 296.892 627.535 295.79 627.535 294.67C627.535 279.836 615.511 267.811 600.678 267.811C600.607 267.811 600.538 267.816 600.468 267.816C598.842 254.539 587.535 244.255 573.819 244.255C569.068 244.255 564.61 245.494 560.739 247.656C558.982 234.524 547.74 224.394 534.127 224.394C532.174 224.394 530.27 224.607 528.435 225.004C528.439 224.8 528.45 224.598 528.45 224.394C528.45 209.56 516.424 197.535 501.591 197.535C493.986 197.535 487.124 200.702 482.238 205.782C478.439 195.563 468.6 188.28 457.058 188.28C451.367 188.28 446.095 190.055 441.751 193.072C439.883 180.066 428.698 170.066 415.172 170.066C402.974 170.066 392.682 178.202 389.407 189.34C384.498 182.943 376.779 178.815 368.092 178.815C361.231 178.815 354.975 181.391 350.228 185.623C345.482 181.391 339.224 178.815 332.364 178.815C321.822 178.815 312.703 184.892 308.307 193.732C303.799 190.312 298.183 188.28 292.088 188.28C278.654 188.28 267.522 198.147 265.544 211.028C262.504 209.836 259.199 209.174 255.736 209.174C241.899 209.174 230.508 219.639 229.042 233.087C227.28 232.723 225.455 232.531 223.586 232.531C208.752 232.531 196.727 244.556 196.727 259.39C196.727 260.406 196.79 261.407 196.899 262.395C192.286 258.659 186.412 256.418 180.014 256.418C168.19 256.418 158.159 264.06 154.571 274.671C150.638 272.412 146.082 271.114 141.219 271.114C126.386 271.114 114.362 283.139 114.362 297.972C114.362 299.398 114.475 300.796 114.688 302.162C113.218 301.912 111.707 301.775 110.164 301.775C95.331 301.775 83.3057 313.8 83.3057 328.634C83.3057 331.367 83.723 333.999 84.4816 336.483H651.74Z" fill="#FFF5CF"/>
<path d="M627.535 297.972C627.464 297.972 627.395 297.976 627.324 297.977C627.458 296.892 627.535 295.791 627.535 294.669C627.535 279.836 615.51 267.811 600.676 267.811C600.607 267.811 600.538 267.816 600.468 267.816C598.842 254.54 587.535 244.255 573.818 244.255C569.068 244.255 564.61 245.493 560.739 247.657C558.98 234.524 547.74 224.393 534.127 224.393C532.174 224.393 530.27 224.608 528.434 225.004C528.439 224.8 528.45 224.599 528.45 224.393C528.45 209.56 516.424 197.535 501.591 197.535C493.986 197.535 487.124 200.701 482.238 205.781C478.439 195.563 468.599 188.28 457.058 188.28C451.367 188.28 446.094 190.055 441.751 193.073C439.883 180.065 428.698 170.067 415.172 170.067C404.484 170.067 395.262 176.311 390.939 185.349C399.168 189.047 405.208 196.747 406.536 205.988C410.879 202.969 416.152 201.195 421.842 201.195C433.384 201.195 443.223 208.476 447.023 218.696C451.91 213.616 458.771 210.449 466.376 210.449C481.21 210.449 493.235 222.473 493.235 237.307C493.235 237.512 493.224 237.715 493.219 237.917C495.055 237.521 496.958 237.307 498.912 237.307C512.526 237.307 523.766 247.439 525.524 260.571C529.395 258.408 533.854 257.169 538.604 257.169C552.32 257.169 563.627 267.453 565.254 280.731C565.323 280.731 565.392 280.725 565.462 280.725C580.295 280.725 592.32 292.749 592.32 307.583C592.32 308.704 592.243 309.807 592.11 310.891C592.18 310.891 592.25 310.887 592.32 310.887C606.728 310.887 618.452 322.24 619.115 336.483H651.74C653.44 332.959 654.394 329.005 654.394 324.831C654.394 309.997 642.368 297.972 627.535 297.972Z" fill="#FFECA1"/>
<path d="M81.0131 418.562H655.178C662.621 392.485 666.61 364.951 666.61 336.483H69.5811C69.5811 364.951 73.5704 392.485 81.0131 418.562Z" fill="#FFA035"/>
<path d="M630.611 336.484C630.611 364.951 626.621 392.484 619.179 418.562H655.179C662.621 392.484 666.611 364.951 666.611 336.484H630.611Z" fill="#F78819"/>
<path d="M194.258 336.483H651.74C653.44 332.958 654.394 329.006 654.394 324.83C654.394 309.996 642.368 297.972 627.535 297.972C627.464 297.972 627.395 297.976 627.324 297.978C627.458 296.892 627.535 295.79 627.535 294.67C627.535 279.836 615.51 267.811 600.676 267.811C600.607 267.811 600.538 267.816 600.468 267.816C598.842 254.539 587.535 244.255 573.818 244.255C569.068 244.255 564.61 245.494 560.739 247.656C558.98 234.524 547.74 224.394 534.127 224.394C532.174 224.394 530.27 224.607 528.434 225.004C528.439 224.8 528.45 224.598 528.45 224.394C528.45 209.56 516.424 197.535 501.591 197.535C493.986 197.535 487.124 200.702 482.238 205.782C478.439 195.563 468.599 188.28 457.058 188.28C451.367 188.28 446.094 190.055 441.751 193.072C439.883 180.066 428.698 170.066 415.172 170.066C402.974 170.066 392.682 178.202 389.407 189.34C384.498 182.943 376.779 178.815 368.091 178.815C361.231 178.815 354.975 181.391 350.228 185.623C345.48 181.391 339.224 178.815 332.364 178.815C321.822 178.815 312.702 184.892 308.307 193.732C303.799 190.312 298.182 188.28 292.088 188.28C278.652 188.28 267.522 198.147 265.543 211.028C262.504 209.836 259.199 209.174 255.735 209.174C241.898 209.174 230.508 219.639 229.042 233.087C227.28 232.723 225.455 232.531 223.586 232.531C208.752 232.531 196.727 244.556 196.727 259.39C196.727 260.406 196.788 261.407 196.899 262.395C192.286 258.659 186.412 256.418 180.012 256.418C168.19 256.418 158.159 264.06 154.571 274.671C150.638 272.412 146.082 271.114 141.219 271.114C126.386 271.114 114.362 283.139 114.362 297.972C114.362 299.398 114.475 300.796 114.688 302.162C113.218 301.912 111.707 301.775 110.164 301.775C95.331 301.775 83.3057 313.8 83.3057 328.634C83.3057 331.367 83.723 333.999 84.4803 336.483H154.258" stroke="black" stroke-width="20" stroke-miterlimit="10" stroke-linecap="round" stroke-linejoin="round"/>
<path d="M241.281 213.41C245.456 210.735 250.41 209.174 255.736 209.174C259.198 209.174 262.504 209.836 265.544 211.028C266.077 207.551 267.297 204.306 269.03 201.403L156.924 19.8377C151.02 10.275 138.398 7.44968 128.981 13.5843C119.564 19.7177 117.045 32.4043 123.405 41.671L241.281 213.41Z" stroke="black" stroke-width="20" stroke-miterlimit="10" stroke-linecap="round" stroke-linejoin="round"/>
<path d="M180.013 256.418C186.156 256.418 191.802 258.499 196.328 261.971L51.0249 98.2794C43.5649 89.8741 30.6462 89.2621 22.4236 96.9234C14.2009 104.586 13.9009 117.517 21.7596 125.551L159.318 266.189C164.242 260.227 171.677 256.418 180.013 256.418Z" stroke="black" stroke-width="20" stroke-miterlimit="10" stroke-linecap="round" stroke-linejoin="round"/>
<path d="M334.915 608.035H492.157V652.329C492.157 663.374 483.202 672.329 472.157 672.329H264.035C252.988 672.329 244.035 663.374 244.035 652.329V608.035H294.915" stroke="black" stroke-width="20" stroke-miterlimit="10" stroke-linecap="round" stroke-linejoin="round"/>
<path d="M154.258 336.484H69.5806C69.5806 457.081 141.101 560.965 244.035 608.064V608.036H294.917" stroke="black" stroke-width="20" stroke-miterlimit="10" stroke-linecap="round" stroke-linejoin="round"/>
<path d="M334.916 608.035H492.157V608.063C595.091 560.965 666.611 457.082 666.611 336.483H194.257" stroke="black" stroke-width="20" stroke-miterlimit="10" stroke-linecap="round" stroke-linejoin="round"/>
<path d="M154.258 336.484H69.5806C69.5806 364.951 73.5699 392.484 81.0126 418.562H534.867" stroke="black" stroke-width="20" stroke-miterlimit="10" stroke-linecap="round" stroke-linejoin="round"/>
<path d="M574.866 418.562H655.178C662.621 392.485 666.61 364.951 666.61 336.483H194.257" stroke="black" stroke-width="20" stroke-miterlimit="10" stroke-linecap="round" stroke-linejoin="round"/>
</g>
</svg>
