<svg width="416" height="513" viewBox="0 0 416 513" fill="none" xmlns="http://www.w3.org/2000/svg">
<path d="M401.813 504.5H63.1002C59.7322 504.5 57.0022 501.77 57.0022 498.402V472.84C57.0022 469.472 59.7322 466.742 63.1002 466.742H401.813C405.181 466.742 407.911 469.472 407.911 472.84V498.401C407.912 501.77 405.181 504.5 401.813 504.5Z" fill="black"/>
<path d="M19.0303 319.011C16.0763 319.011 13.1233 317.885 10.8693 315.631C6.36226 311.124 6.36226 303.816 10.8693 299.31L63.0533 247.127C65.2173 244.962 68.1533 243.747 71.2143 243.747H118.043C124.417 243.747 129.584 248.914 129.584 255.288C129.584 261.662 124.417 266.829 118.043 266.829H75.9953L27.1923 315.632C24.9373 317.884 21.9833 319.011 19.0303 319.011Z" fill="#4F6C77"/>
<path d="M401.813 504.5H63.1002C59.7322 504.5 57.0022 501.77 57.0022 498.402V472.84C57.0022 469.472 59.7322 466.742 63.1002 466.742H401.813C405.181 466.742 407.911 469.472 407.911 472.84V498.401C407.912 501.77 405.181 504.5 401.813 504.5Z" fill="#728D9A"/>
<path d="M401.813 466.742H378.033C381.401 466.742 384.131 469.472 384.131 472.841V498.402C384.131 501.77 381.401 504.5 378.033 504.5H401.813C405.181 504.5 407.911 501.77 407.911 498.402V472.84C407.912 469.472 405.181 466.742 401.813 466.742Z" fill="#4F6C77"/>
<path d="M261.062 466.742H143.881C111.705 466.742 87.5672 437.315 93.8592 405.761L123.72 256.013H281.223L311.084 405.761C317.376 437.315 293.237 466.742 261.062 466.742Z" fill="#B8E3FF"/>
<path d="M311.084 405.761L281.223 256.013H257.636H123.719L115.395 297.76H238.169C254.327 297.76 268.236 309.17 271.396 325.015L287.497 405.761C293.789 437.315 269.651 466.742 237.475 466.742H261.062C293.237 466.742 317.376 437.315 311.084 405.761Z" fill="#A2DBFF"/>
<path d="M271.935 337.274C252.936 323.529 231.869 316.624 202.471 337.274C178.693 359.899 155.621 356.925 133.008 337.274L118.377 410.649C116.848 418.318 118.815 426.183 123.774 432.229C128.733 438.274 136.062 441.742 143.881 441.742H261.062C268.881 441.742 276.209 438.275 281.168 432.229C286.128 426.183 288.095 418.318 286.565 410.649L271.935 337.274Z" fill="#A55B4E"/>
<path d="M286.459 410.114L271.935 337.274C257.922 327.136 242.779 320.734 224.002 326.351C224.075 326.374 224.148 326.396 224.221 326.419C236.354 330.247 245.296 340.599 247.784 353.076L259.157 410.113C260.582 417.261 259.223 424.774 255.014 430.723C250.081 437.695 242.207 441.741 233.76 441.741H261.063C269.51 441.741 277.384 437.695 282.317 430.723C286.525 424.774 287.884 417.261 286.459 410.114Z" fill="#8E4B3F"/>
<path d="M308.508 173.246H96.4343L123.719 256.013H281.223L308.508 173.246Z" fill="#B8E3FF"/>
<path d="M281.123 173.246L253.838 256.013H281.223L308.508 173.246H281.123Z" fill="#A2DBFF"/>
<path d="M292.611 276.523H112.332C107.097 276.523 102.853 272.279 102.853 267.044V243.529C102.853 238.294 107.097 234.05 112.332 234.05H292.611C297.846 234.05 302.09 238.294 302.09 243.529V267.044C302.09 272.279 297.846 276.523 292.611 276.523Z" fill="#728D9A"/>
<path d="M292.611 234.05H268.831C274.066 234.05 278.31 238.294 278.31 243.529V267.044C278.31 272.279 274.066 276.523 268.831 276.523H292.611C297.846 276.523 302.09 272.279 302.09 267.044V243.529C302.09 238.294 297.846 234.05 292.611 234.05Z" fill="#4F6C77"/>
<path d="M279.057 37.384H125.886C123.433 37.384 121.444 35.395 121.444 32.942V11.942C121.444 9.489 123.433 7.5 125.886 7.5H279.057C281.51 7.5 283.499 9.489 283.499 11.942V32.942C283.499 35.395 281.51 37.384 279.057 37.384Z" fill="#728D9A"/>
<path d="M279.057 7.5H252.635C255.088 7.5 257.077 9.489 257.077 11.942V32.942C257.077 35.395 255.088 37.384 252.635 37.384H279.057C281.51 37.384 283.499 35.395 283.499 32.942V11.942C283.499 9.489 281.51 7.5 279.057 7.5Z" fill="#4F6C77"/>
<path d="M267.067 37.384H137.875L182.982 125.898H221.96L267.067 37.384Z" fill="#ECECEC"/>
<path d="M239.324 37.384L194.217 125.898H221.96L267.067 37.384H239.324Z" fill="#E3E3E3"/>
<path d="M117.975 436.986C124.364 444.775 133.807 449.242 143.881 449.242H261.062C271.136 449.242 280.579 444.775 286.967 436.986C293.357 429.197 295.891 419.063 293.921 409.182L279.29 335.807C278.92 333.953 277.863 332.306 276.331 331.198C258.382 318.213 233.275 306.469 198.16 331.137C197.857 331.35 197.57 331.585 197.301 331.84C177.787 350.408 159.476 350.339 137.927 331.612C135.91 329.859 133.113 329.31 130.582 330.176C128.053 331.04 126.175 333.185 125.652 335.806L111.021 409.181C109.051 419.062 111.585 429.196 117.975 436.986ZM125.731 412.116L138.018 350.5C161.723 366.032 185.449 363.564 207.221 343.104C231.471 326.255 248.166 330.049 265.165 341.679L279.21 412.116C280.299 417.573 278.898 423.171 275.369 427.472C271.841 431.775 266.626 434.242 261.061 434.242H143.881C138.317 434.242 133.101 431.774 129.572 427.472C126.043 423.17 124.644 417.573 125.731 412.116Z" fill="black"/>
<path d="M401.813 459.242H376.072V110.822C376.072 95.738 372.447 80.663 365.589 67.225C351.02 38.682 322.697 19.177 290.999 15.552V11.942C290.999 5.357 285.642 0 279.057 0H187.295C183.153 0 179.795 3.357 179.795 7.5C179.795 11.643 183.153 15 187.295 15H275.999V29.884H128.944V15H158.296C162.438 15 165.796 11.643 165.796 7.5C165.796 3.357 162.438 0 158.296 0H125.886C119.301 0 113.944 5.357 113.944 11.942V32.942C113.944 39.527 119.301 44.883 125.886 44.883H133.28L176.3 129.302C177.58 131.815 180.162 133.397 182.982 133.397H221.96C224.78 133.397 227.361 131.815 228.643 129.302L271.664 44.883H279.057C285.642 44.883 290.999 39.527 290.999 32.942V30.658C317.052 34.203 340.198 50.475 352.228 74.044C358.014 85.379 361.072 98.097 361.072 110.821V459.241H300.163C302.344 457.276 304.403 455.149 306.297 452.84C317.453 439.239 321.879 421.544 318.439 404.293L294.436 283.921C302.943 283.007 309.59 275.789 309.59 267.043V243.528C309.59 236.231 304.955 230.013 298.481 227.617L315.632 175.593C316.385 173.307 315.996 170.799 314.586 168.849C313.176 166.899 310.915 165.745 308.509 165.745H96.4343C94.0283 165.745 91.7672 166.899 90.3572 168.849C88.9472 170.799 88.5583 173.307 89.3113 175.593L106.462 227.617C102.303 229.157 98.9153 232.272 97.0183 236.245H71.2153C66.1293 236.245 61.3472 238.226 57.7512 241.822L5.56725 294.005C-1.85575 301.429 -1.85575 313.508 5.56725 320.934C9.16325 324.53 13.9442 326.51 19.0312 326.51C24.1162 326.51 28.8983 324.53 32.4953 320.934L79.1013 274.328H97.0183C99.5023 279.528 104.538 283.28 110.507 283.922L105.344 309.813C104.534 313.875 107.17 317.825 111.232 318.635C111.727 318.734 112.221 318.781 112.707 318.781C116.211 318.781 119.343 316.314 120.054 312.747L125.781 284.024H279.16L303.727 407.228C306.286 420.056 302.995 433.214 294.699 443.328C286.403 453.442 274.142 459.243 261.061 459.243H143.88C130.799 459.243 118.539 453.442 110.243 443.329C101.947 433.215 98.6563 420.057 101.214 407.228L114.382 341.192C115.192 337.13 112.556 333.18 108.494 332.37C104.431 331.562 100.482 334.196 99.6722 338.259L86.5042 404.295C83.0642 421.547 87.4892 439.241 98.6462 452.843C100.54 455.152 102.599 457.279 104.779 459.243H63.1002C55.6022 459.243 49.5022 465.344 49.5022 472.842V498.403C49.5022 505.901 55.6022 512.002 63.1002 512.002H316.273C320.416 512.002 323.773 508.645 323.773 504.502C323.773 500.359 320.416 497.002 316.273 497.002H64.5013V474.244H400.411V497H345.272C341.129 497 337.772 500.357 337.772 504.5C337.772 508.643 341.129 512 345.272 512H401.813C409.311 512 415.411 505.899 415.411 498.401V472.84C415.411 465.343 409.312 459.242 401.813 459.242ZM217.364 118.397H187.577L150.115 44.884H254.827L217.364 118.397ZM298.14 180.746L283.038 226.551H121.904L106.803 180.746H298.14ZM75.9943 259.328C74.0053 259.328 72.0973 260.118 70.6913 261.524L21.8882 310.327C21.1242 311.091 20.1102 311.511 19.0302 311.511C17.9502 311.511 16.9363 311.091 16.1733 310.328C14.5973 308.752 14.5973 306.188 16.1733 304.613L68.3573 252.429C69.1203 251.665 70.1353 251.245 71.2143 251.245H95.3532V259.327H75.9943V259.328ZM110.353 243.529C110.353 242.438 111.241 241.55 112.332 241.55H292.612C293.703 241.55 294.591 242.438 294.591 243.529V267.044C294.591 268.136 293.703 269.023 292.612 269.023H112.332C111.241 269.023 110.353 268.135 110.353 267.044V243.529Z" fill="black"/>
<path d="M187.444 262.787H217.499C221.642 262.787 224.999 259.43 224.999 255.287C224.999 251.144 221.642 247.787 217.499 247.787H187.444C183.302 247.787 179.944 251.144 179.944 255.287C179.944 259.43 183.302 262.787 187.444 262.787Z" fill="black"/>
</svg>
