<svg id="Layer_1" enable-background="new 0 0 245.979 236.229" height="512" viewBox="0 0 245.979 236.229" width="512" xmlns="http://www.w3.org/2000/svg"><g><path d="m180.63 130.582-7.403-21.591c-.233-.677-.611-1.28-1.089-1.791-.333 4.982-4.355 9.054-9.464 9.316-1.263.063-2.507.096-3.698.096h-.113c-3.397-.001-6.626-.251-9.691-.705-.015.627.082 1.267.317 1.89.975 2.583 3.859 3.885 6.444 2.91v-.002l9.506-3.593 22.558 65.787c3.905-4.268 8.839-7.511 14.469-9.42 3.62-1.227 7.381-1.852 11.172-1.852 12.078 0 23.053 6.229 29.339 16.102 3.74-.179 4.698-2.369-1.312-10.2-9.69-12.627-23.169-15.075-32.649-14.948-.595-1.604-1.21-3.28-1.851-5.052-5.809-16.062-18.856-23.712-26.535-26.947z"/><path d="m135.302 31.518c0 .067.002.136.008.213.256 4.838 1.357 8.208 1.373 11.551.004 1.724-.329 3.445-1.267 5.186-.091.17-.238.316-.411.408-2.752 1.472-5.709 1.934-8.717 1.934-2.628-.002-5.311-.345-8.019-.699-2.527-.329-4.758-.849-6.748-1.557 3.056 3.954 7.44 6.921 12.687 8.142 12.1 2.818 24.191-4.707 27.012-16.806 1.246-5.353.465-10.704-1.839-15.252-4.028.494-9.45 1.497-12.186 3.61-1.249.959-1.882 1.967-1.893 3.27z"/><path d="m99.58 78.626-.006-.014-.043-.092c-1.107-2.431-1.199-5.149-.262-7.649s2.794-4.487 5.224-5.591c1.312-.599 2.704-.9 4.136-.9 3.913 0 7.487 2.3 9.106 5.86l.049.099c.074.151.197.394.369.715.348.656.935 1.701 1.751 2.974.954 1.494 2.336 3.474 4.132 5.626 1.803-9.451-1.997-19.875-9.927-21.85-8.537-2.129-20.912 2.508-25.947 17.149-6.805 20.175-8.268 33.306-5.682 55.521 2.501 12.87 10.054 16.505 17.664 17.387.034.006.066.016.1.021l37.921 5.896 14.205 36.006c1.939 4.916 6.648 7.916 11.631 7.916 1.526 0 3.079-.281 4.585-.875 6.42-2.534 9.572-9.794 7.04-16.214l-16.834-42.668c-1.626-4.118-5.335-7.085-9.707-7.765l-31.419-4.887c-.163-7.373.649-15.009 1.81-22.284-2.297-1.806-4.332-3.645-6.102-5.414-8.442-8.405-12.691-16.642-13.794-18.967z"/><path d="m158.864 114.612h.113c1.189 0 2.387-.033 3.595-.094 4.413-.226 7.808-3.983 7.583-8.395-.225-4.413-3.985-7.807-8.395-7.582-.957.049-1.884.072-2.783.072-15.327-.033-25.739-6.751-32.919-13.797-3.544-3.512-6.155-7.079-7.836-9.708-.841-1.314-1.45-2.396-1.833-3.11-.19-.358-.326-.624-.403-.786-.033-.066-.056-.115-.071-.143h.001c-1.831-4.022-6.573-5.799-10.594-3.968-4.023 1.828-5.799 6.57-3.97 10.592.266.551 4.29 9.382 13.44 18.485 9.051 9.051 23.776 18.433 44.072 18.434z"/><path d="m73.832 141.858v-62.27c0-2.947-2.389-5.337-5.336-5.337h-63.16c-2.947.001-5.336 2.391-5.336 5.338v62.27c0 2.948 2.389 5.337 5.336 5.337h63.16c2.947 0 5.336-2.389 5.336-5.338z"/><path d="m93.746 196.862c-5.284-15.582-22.197-23.932-37.781-18.648-15.582 5.283-23.932 22.199-18.648 37.781 5.283 15.582 22.197 23.932 37.781 18.649 15.582-5.284 23.931-22.2 18.648-37.782zm-24.436 20.713c-6.156 2.088-12.84-1.213-14.926-7.367-2.086-6.156 1.213-12.84 7.367-14.926 6.156-2.088 12.84 1.213 14.926 7.367 2.089 6.156-1.21 12.838-7.367 14.926z"/><path d="m198.166 128.904c8.421 0 8.421-30.5 0-30.5-8.422 0-15.25 6.827-15.25 15.25s6.828 15.25 15.25 15.25z"/><path d="m179.233 201.196h-63.759c-5.512-11.121-7.408-22.474-8.036-29.859 1.637-.501 2.835-2.007 2.835-3.808v-11c0-2.209-1.791-4-4-4h-81.5c-2.209 0-4 1.791-4 4v11c0 2.209 1.791 4 4 4h.441c-4.344 10.659-11.048 29.136-11.048 41.667h17.242c-1.5-7.483-.51-15.209 2.924-22.166 4.115-8.333 11.227-14.568 20.027-17.55 3.623-1.23 7.381-1.851 11.174-1.851 14.916 0 28.156 9.494 32.947 23.629 2.03 5.985 2.32 12.145 1.161 17.938h7.025 16.5 56.35c-.799-3.983-.892-8.032-.283-12z"/><path d="m204.072 178.213c-15.582 5.283-23.932 22.199-18.648 37.781 5.283 15.582 22.197 23.932 37.781 18.649 15.582-5.283 23.932-22.199 18.648-37.781-5.283-15.582-22.197-23.932-37.781-18.649zm13.346 39.362c-6.156 2.088-12.84-1.213-14.926-7.367-2.086-6.156 1.213-12.84 7.367-14.926 6.156-2.088 12.84 1.213 14.926 7.367 2.088 6.156-1.211 12.838-7.367 14.926z"/><path d="m151.872 22.368c-.427-3.037-1.386-5.929-2.793-8.569-3.821-7.169-10.917-12.444-19.584-13.578-1.143-.15-2.279-.221-3.402-.221-.001 0-.002 0-.004 0-12.854 0-24.034 9.539-25.742 22.635-.148 1.139-.222 2.271-.222 3.388 0 1.546.138 3.067.404 4.554.987 5.541 2.655 9.52 5.419 12.3 2.762 2.778 6.719 4.482 12.581 5.252 2.702.354 5.31.683 7.759.68 2.706 0 5.203-.395 7.502-1.554.664-1.338.889-2.578.893-3.972.016-2.86-1.085-6.361-1.369-11.437-.008-.108-.01-.217-.012-.327-.008-2.059 1.134-3.713 2.689-4.866 1.562-1.174 3.577-1.98 5.701-2.588 3.672-1.044 7.71-1.468 10.18-1.697z"/></g></svg>