<svg width="326" height="512" viewBox="0 0 326 512" fill="none" xmlns="http://www.w3.org/2000/svg">
<path d="M263.73 7.5L273.5 35.86L245.14 45.63H205.36L235.36 17.27L263.73 7.5Z" fill="#54D8FF"/>
<path d="M245.14 45.63L178 68.76V187.5H148V68.76C148 55.96 156.12 44.57 168.23 40.4L235.36 17.27L245.14 45.63Z" fill="#8DE5FF"/>
<path d="M163 202.5L227.997 504.5H257.997L288.5 217.5V202.5H163Z" fill="#D94B41"/>
<path d="M258.5 202.5H37.5V217.5L68.003 504.5H227.997L258.5 217.5V202.5Z" fill="#FF6C4A"/>
<path d="M272.997 142.5H241.267V202.5H288.5V187.5L272.997 142.5Z" fill="#FFE341"/>
<path d="M241.267 142.5H53.003L37.5 187.5V202.5H256.769V187.5L241.267 142.5Z" fill="#FFF1A0"/>
<path d="M303.5 187.5H273.5V217.5H303.5C311.784 217.5 318.5 210.784 318.5 202.5C318.5 194.216 311.784 187.5 303.5 187.5Z" fill="#FFF1A0"/>
<path d="M288.5 202.5C288.5 194.216 281.784 187.5 273.5 187.5H22.5C14.216 187.5 7.5 194.216 7.5 202.5C7.5 210.784 14.216 217.5 22.5 217.5H273.5C281.784 217.5 288.5 210.784 288.5 202.5Z" fill="#FFF9D6"/>
<path d="M303.5 180H293.849L280.088 140.057C279.046 137.031 276.197 135 272.997 135H185.5V74.113L275.943 42.955C279.859 41.606 281.94 37.337 280.59 33.421L270.819 5.05704C270.172 3.17604 268.802 1.63004 267.015 0.758036C265.226 -0.112964 263.167 -0.238964 261.285 0.409036L165.786 33.309C150.661 38.519 140.5 52.767 140.5 68.764V135H53.003C49.803 135 46.954 137.031 45.912 140.057L32.151 180H22.5C10.094 180 0 190.094 0 202.5C0 214.906 10.094 225 22.5 225H30.755L60.545 505.292C60.95 509.106 64.168 512 68.003 512H257.997C261.832 512 265.05 509.106 265.455 505.292L295.245 225H303.5C315.906 225 326 214.907 326 202.5C326 190.093 315.906 180 303.5 180ZM155.5 68.764C155.5 59.166 161.597 50.618 170.672 47.491L259.08 17.033L263.966 31.215L175.557 61.673C172.532 62.715 170.5 65.563 170.5 68.764V135H155.5V68.764ZM251.252 497H74.748L45.839 225H280.16L251.252 497ZM303.5 210H22.5C18.364 210 15 206.636 15 202.5C15 198.364 18.364 195 22.5 195H37.5C40.7 195 43.549 192.969 44.591 189.943L58.351 150H267.648L277.983 180H69.23C65.087 180 61.73 183.358 61.73 187.5C61.73 191.642 65.087 195 69.23 195H288.325C288.44 195.003 288.558 195.003 288.674 195H303.5C307.636 195 311 198.364 311 202.5C311 206.636 307.636 210 303.5 210Z" fill="black"/>
</svg>
