<svg width="683" height="683" viewBox="0 0 683 683" fill="none" xmlns="http://www.w3.org/2000/svg">
<mask id="mask0_203_280" style="mask-type:luminance" maskUnits="userSpaceOnUse" x="0" y="0" width="683" height="683">
<path d="M0 -0.00012207H682.667V682.667H0V-0.00012207Z" fill="white"/>
</mask>
<g mask="url(#mask0_203_280)">
<path d="M468.135 41.9637L398.858 107.736C394.646 111.734 389.058 113.964 383.251 113.964H238.519C226.737 113.964 217.186 123.516 217.186 135.297C217.186 147.08 226.737 156.63 238.519 156.63H401.21C407.475 156.63 413.459 154.038 417.745 149.468L478.125 85.0717C480.646 82.3837 484.165 80.8584 487.851 80.8584H664.666C669.085 80.8584 672.666 77.2757 672.666 72.8584V42.6357C672.666 38.217 669.085 34.6357 664.666 34.6357H486.495C479.663 34.6357 473.09 37.2584 468.135 41.9637Z" fill="#C8EFFE"/>
<path d="M664.667 34.6362H623.092C627.511 34.6362 631.092 38.2175 631.092 42.6362V60.4069C631.092 63.3522 628.704 65.7402 625.759 65.7402H480.292C476.607 65.7402 473.085 67.2655 470.565 69.9535L410.187 134.35C405.901 138.919 399.916 141.512 393.651 141.512H230.961C225.737 141.512 220.957 139.628 217.248 136.511C217.88 147.726 227.147 156.631 238.52 156.631H401.209C407.475 156.631 413.46 154.038 417.745 149.468L478.125 85.0722C480.644 82.3842 484.165 80.8589 487.852 80.8589H623.092H664.667C669.084 80.8589 672.667 77.2762 672.667 72.8589V42.6362C672.667 38.1469 668.973 34.6362 664.667 34.6362Z" fill="#99E6FC"/>
<path d="M284.292 307.747H241.625V96.1911C241.625 84.4097 251.177 74.8577 262.958 74.8577C274.741 74.8577 284.292 84.4097 284.292 96.1911V307.747Z" fill="#FEC165"/>
<path d="M305.625 201.045C293.844 201.045 284.292 191.493 284.292 179.711V96.1914C284.292 84.41 293.844 74.858 305.625 74.858C317.408 74.858 326.958 84.41 326.958 96.1914V179.711C326.958 191.493 317.408 201.045 305.625 201.045Z" fill="#FDB541"/>
<path d="M241.625 307.747H198.958V96.1911C198.958 84.4097 208.51 74.8577 220.291 74.8577C232.074 74.8577 241.625 84.4097 241.625 96.1911V307.747Z" fill="#FDB541"/>
<path d="M348.291 201.045C336.51 201.045 326.958 191.493 326.958 179.711V96.1914C326.958 84.41 336.51 74.858 348.291 74.858C360.074 74.858 369.625 84.41 369.625 96.1914V179.711C369.625 191.493 360.074 201.045 348.291 201.045Z" fill="#FEC165"/>
<path d="M262.958 74.8582C258.788 74.8582 254.908 76.0742 251.62 78.1435C257.617 81.9195 261.614 88.5809 261.614 96.1915V307.748H284.292V96.1915C284.292 84.4102 274.741 74.8582 262.958 74.8582Z" fill="#FDB541"/>
<path d="M305.625 74.8583C301.454 74.8583 297.574 76.0743 294.286 78.1436C300.283 81.9196 304.281 88.5809 304.281 96.1916V179.712C304.281 187.322 300.283 193.982 294.286 197.758C297.574 199.829 301.454 201.045 305.625 201.045C317.407 201.045 326.958 191.493 326.958 179.712V96.1916C326.958 84.4103 317.407 74.8583 305.625 74.8583Z" fill="#FEA713"/>
<path d="M220.292 74.8582C216.121 74.8582 212.241 76.0742 208.953 78.1435C214.95 81.9195 218.948 88.5809 218.948 96.1915V307.748H241.625V96.1915C241.625 84.4102 232.074 74.8582 220.292 74.8582Z" fill="#FEA713"/>
<path d="M348.292 74.8583C344.121 74.8583 340.241 76.0743 336.953 78.1436C342.95 81.9196 346.948 88.5809 346.948 96.1916V179.712C346.948 187.322 342.95 193.982 336.953 197.758C340.241 199.829 344.121 201.045 348.292 201.045C360.074 201.045 369.625 191.493 369.625 179.712V96.1916C369.625 84.4103 360.074 74.8583 348.292 74.8583Z" fill="#FDB541"/>
<path d="M35.2812 551.035L43.5186 617.619C45.6666 634.987 60.4226 648.029 77.9226 648.029H604.449C621.949 648.029 636.705 634.987 638.855 617.619L647.091 551.035H35.2812Z" fill="#C8EFFE"/>
<path d="M609.295 551.035L601.058 617.619C598.91 634.987 584.155 648.029 566.655 648.029H604.449C621.949 648.029 636.706 634.987 638.854 617.619L647.091 551.035H609.295Z" fill="#99E6FC"/>
<path d="M506.504 292.343C506.504 314.592 488.466 332.631 466.216 332.631C443.966 332.631 425.928 314.592 425.928 292.343C425.928 270.092 443.966 252.055 466.216 252.055C488.466 252.055 506.504 270.092 506.504 292.343Z" fill="#DC8758"/>
<path d="M466.216 252.054C459.386 252.054 452.956 253.761 447.319 256.76C460.043 263.532 468.71 276.922 468.71 292.342C468.71 307.762 460.043 321.153 447.319 327.925C452.956 330.925 459.386 332.63 466.216 332.63C488.467 332.63 506.504 314.593 506.504 292.342C506.504 270.092 488.467 252.054 466.216 252.054Z" fill="#D77F4A"/>
<path d="M530.884 483.824H136.504V474.532C136.504 370.592 220.764 286.331 324.705 286.331H342.683C446.624 286.331 530.884 370.592 530.884 474.532V483.824Z" fill="#FDB541"/>
<path d="M437.553 453.826C432.928 453.826 428.776 450.599 427.78 445.892C419.038 404.567 382.02 374.572 339.756 374.572H327.632C285.368 374.572 248.349 404.567 239.608 445.892C238.465 451.298 233.153 454.748 227.754 453.607C222.352 452.464 218.898 447.158 220.04 441.754C230.725 391.238 275.973 354.572 327.632 354.572H339.756C391.414 354.572 436.662 391.238 447.348 441.754C448.489 447.158 445.036 452.464 439.633 453.607C438.936 453.755 438.24 453.826 437.553 453.826Z" fill="#FD9A01"/>
<path d="M647.091 567.574H252.711V558.282C252.711 454.342 336.971 370.08 440.912 370.08H458.89C562.831 370.08 647.091 454.342 647.091 558.282V567.574Z" fill="#FEC165"/>
<path d="M603.881 537.576C599.256 537.576 595.104 534.349 594.108 529.642C580.681 466.158 523.812 420.081 458.889 420.081H440.912C375.989 420.081 319.121 466.158 305.693 529.642C304.549 535.046 299.241 538.497 293.841 537.357C288.437 536.214 284.984 530.908 286.127 525.505C293.515 490.573 312.891 458.772 340.687 435.96C368.876 412.824 404.469 400.081 440.912 400.081H458.889C495.332 400.081 530.925 412.824 559.116 435.96C586.911 458.772 606.288 490.573 613.676 525.505C614.817 530.908 611.364 536.214 605.961 537.357C605.264 537.505 604.568 537.576 603.881 537.576Z" fill="#FEA713"/>
<path d="M347.768 567.574H35.2817V560.212C35.2817 477.854 102.046 411.091 184.403 411.091H198.647C281.004 411.091 347.768 477.854 347.768 560.212V567.574Z" fill="#FECE85"/>
<path d="M302.781 537.577C298.529 537.577 294.585 534.842 293.244 530.57C280.193 489.013 242.177 461.09 198.647 461.09H184.403C140.872 461.09 102.857 489.013 89.8066 530.57C88.152 535.839 82.5453 538.77 77.2693 537.114C72 535.461 69.0706 529.847 70.7253 524.578C78.1586 500.906 93.2653 479.646 113.263 464.715C133.961 449.259 158.561 441.09 184.403 441.09H198.647C224.488 441.09 249.088 449.259 269.787 464.715C289.784 479.646 304.891 500.906 312.324 524.578C313.979 529.847 311.049 535.461 305.78 537.114C304.783 537.427 303.773 537.577 302.781 537.577Z" fill="#FDB541"/>
<path d="M247.152 537.577C242.9 537.577 238.956 534.842 237.615 530.57C231.746 511.886 214.655 499.331 195.086 499.331H187.963C168.395 499.331 151.303 511.886 145.435 530.57C143.782 535.839 138.174 538.77 132.899 537.114C127.628 535.459 124.699 529.847 126.354 524.578C134.852 497.515 159.612 479.331 187.963 479.331H195.086C223.438 479.331 248.196 497.515 256.695 524.578C258.35 529.847 255.42 535.459 250.151 537.114C249.155 537.427 248.144 537.577 247.152 537.577Z" fill="#FDB541"/>
<path d="M550.133 537.576C545.508 537.576 541.356 534.349 540.36 529.642C531.958 489.921 496.377 461.09 455.753 461.09H444.049C403.426 461.09 367.844 489.921 359.442 529.642C358.298 535.046 352.99 538.497 347.59 537.357C342.186 536.214 338.733 530.908 339.876 525.505C350.22 476.592 394.032 441.09 444.049 441.09H455.753C505.772 441.09 549.582 476.592 559.928 525.505C561.069 530.908 557.616 536.214 552.213 537.357C551.514 537.505 550.82 537.576 550.133 537.576Z" fill="#FEA713"/>
<path d="M491.878 537.576C487.252 537.576 483.1 534.349 482.104 529.642C479.15 515.676 466.636 505.538 452.351 505.538H447.451C433.166 505.538 420.652 515.676 417.698 529.642C416.555 535.046 411.247 538.497 405.846 537.357C400.442 536.214 396.988 530.908 398.13 525.505C403.028 502.346 423.771 485.538 447.451 485.538H452.351C476.031 485.538 496.774 502.346 501.672 525.505C502.814 530.908 499.36 536.214 493.958 537.357C493.26 537.505 492.564 537.576 491.878 537.576Z" fill="#FEA713"/>
<path d="M649.333 574.221H33.3333C20.4467 574.221 10 563.775 10 550.888C10 538.001 20.4467 527.555 33.3333 527.555H649.333C662.22 527.555 672.667 538.001 672.667 550.888C672.667 563.775 662.22 574.221 649.333 574.221Z" fill="#99E6FC"/>
<path d="M565.285 455.416C554.599 342.772 459.739 254.654 344.297 254.654H323.092C246.877 254.654 179.659 293.078 139.688 351.595L139.685 351.568C128.132 366.627 120.52 387.656 120.52 409.764V410.276C120.52 423.102 131.041 433.38 143.868 432.98L148.356 432.988C160.924 432.792 171.771 424.055 174.615 411.774L178.9 393.27C181.02 384.119 189.171 377.64 198.564 377.64H281.985C289.676 377.64 295.911 383.874 295.911 391.564V460.084C295.911 474.658 307.243 487.068 321.805 487.586C337.093 488.128 349.659 475.896 349.659 460.728V412.56C349.659 394.876 364.131 379.978 381.811 380.314C398.948 380.639 412.743 394.634 412.743 411.85V439.622C412.743 454.436 424.753 466.447 439.568 466.447H439.76C454.168 466.447 465.961 454.988 466.376 440.587C466.691 429.719 476.328 421.502 487.109 422.911C495.94 424.064 502.676 431.391 503.075 440.299L503.613 452.38C504.252 466.666 512.959 478.751 525.215 484.319C532.393 487.579 540.648 487.516 547.908 484.438C559.389 479.568 566.463 467.832 565.285 455.416Z" fill="#E94444"/>
<path d="M272.1 281.341C272.1 303.591 254.063 321.629 231.812 321.629C209.563 321.629 191.524 303.591 191.524 281.341C191.524 259.091 209.563 241.053 231.812 241.053C254.063 241.053 272.1 259.091 272.1 281.341Z" fill="#DC8758"/>
<path d="M411.029 340.668C411.029 362.918 392.991 380.956 370.741 380.956C348.491 380.956 330.453 362.918 330.453 340.668C330.453 318.418 348.491 300.38 370.741 300.38C392.991 300.38 411.029 318.418 411.029 340.668Z" fill="#DC8758"/>
<path d="M649.333 527.555H611.537C624.424 527.555 634.87 538.001 634.87 550.888C634.87 563.775 624.424 574.221 611.537 574.221H649.333C662.22 574.221 672.666 563.775 672.666 550.888C672.666 538.001 662.22 527.555 649.333 527.555Z" fill="#62DBFB"/>
<path d="M565.285 455.416C554.598 342.772 459.738 254.654 344.297 254.654C321.09 254.654 319.202 254.566 311.126 254.995C420.994 260.939 509.622 346.762 519.929 455.416C520.652 463.028 518.261 470.378 513.666 476.052C516.93 479.503 520.841 482.332 525.214 484.319C532.393 487.579 540.648 487.516 547.908 484.438C559.389 479.568 566.462 467.832 565.285 455.416Z" fill="#D83131"/>
<path d="M271.478 250.436C266.547 244.123 259.864 238.783 252.107 235.347C251.946 235.274 251.788 235.191 251.624 235.12V96.1912C251.624 89.9418 256.71 84.8578 262.958 84.8578C269.207 84.8578 274.291 89.9418 274.291 96.1912V249.796C273.367 249.996 272.419 250.22 271.478 250.436ZM208.958 96.1912C208.958 89.9418 214.043 84.8578 220.291 84.8578C226.54 84.8578 231.624 89.9418 231.624 96.1912V231.027C223.675 231.036 215.924 232.931 208.958 236.495V96.1912ZM262.1 281.342C262.1 296.734 249.99 310.727 233.399 311.587C215.788 312.44 201.524 298.463 201.524 281.342C201.524 265.804 213.36 252.786 228.699 251.214C228.72 251.211 228.74 251.21 228.762 251.207C246.708 249.403 262.1 263.578 262.1 281.342ZM305.624 84.8578C311.874 84.8578 316.958 89.9418 316.958 96.1912V179.711C316.958 185.96 311.874 191.044 305.624 191.044C299.376 191.044 294.291 185.96 294.291 179.711V96.1912C294.291 89.9418 299.376 84.8578 305.624 84.8578ZM348.291 84.8578C354.54 84.8578 359.624 89.9418 359.624 96.1912V113.964V156.631V179.711C359.624 185.96 354.54 191.044 348.291 191.044C342.043 191.044 336.958 185.96 336.958 179.711V96.1912C336.958 89.9418 342.043 84.8578 348.291 84.8578ZM405.743 114.988L475.022 49.2151C478.13 46.2631 482.206 44.6365 486.495 44.6365H662.667V70.8578H487.851C481.426 70.8578 475.222 73.5471 470.831 78.2325L410.45 142.628C405.615 147.786 401.679 146.631 379.624 146.631V124.066C388.698 124.028 397.362 122.944 405.743 114.988ZM447.292 268.718C470.072 250.492 503.398 272.11 495.374 300.587C481.122 288.332 464.527 277.263 447.292 268.718ZM632.402 517.554H611.751C605.13 492.731 592.5 469.868 574.859 450.846C573.615 439.575 571.471 428.232 568.791 417.954C600.755 442.894 623.156 477.791 632.402 517.554ZM662.667 550.887C662.667 558.24 656.684 564.22 649.334 564.22H33.3338C25.9818 564.22 20.0005 558.24 20.0005 550.887C20.0005 543.535 25.9818 537.554 33.3338 537.554H649.334C656.684 537.554 662.667 543.535 662.667 550.887ZM231.05 517.554H152.002C160.215 506.294 173.396 499.332 187.963 499.332H195.086C209.651 499.332 222.835 506.294 231.05 517.554ZM254.035 517.554C243.743 494.418 220.907 479.332 195.086 479.332H187.963C162.142 479.332 139.306 494.418 129.015 517.554H94.9272C111.187 483.294 145.595 461.09 184.402 461.09H198.647C237.454 461.09 271.862 483.294 288.122 517.554H254.035ZM122.439 435.655C134.5 445.74 152.931 443.764 161.502 440.431C161.522 440.423 161.542 440.414 161.562 440.406C170.532 436.899 177.87 430.02 181.92 421.119C183.596 421.08 183.13 421.09 198.647 421.09C230.43 421.09 261.239 431.998 285.91 451.894C285.91 460.755 285.231 467.991 290.206 477.492C296.496 489.506 308.867 497.636 322.88 497.6C326.187 504.143 328.879 510.742 331.072 517.554H309.843C292.748 473.296 249.887 441.09 198.647 441.09H184.402C158.56 441.09 133.96 449.259 113.263 464.714C95.2671 478.152 81.2525 496.722 73.2058 517.554H51.9538C63.3871 482.111 88.8858 452.383 122.439 435.655ZM198.563 387.64H249.012C243.764 393.011 239.066 398.928 235 405.314C223.163 402.532 210.97 401.09 198.647 401.09H187.354L188.642 395.527C189.718 390.883 193.796 387.64 198.563 387.64ZM370.74 310.38C387.442 310.38 401.028 323.967 401.028 340.668C401.028 357.368 387.442 370.956 370.74 370.956C354.04 370.956 340.452 357.368 340.452 340.668C340.452 323.967 354.04 310.38 370.74 310.38ZM439.76 476.447C451.306 476.447 461.992 471.172 468.907 462.106C479.514 463.742 489.808 467.371 499.091 472.764C504.722 483.304 514.068 491.126 524.044 494.612C529.462 501.586 533.783 509.348 536.843 517.554H499.275C491.804 498.6 473.223 485.539 452.351 485.539H447.45C426.578 485.539 407.998 498.6 400.528 517.554H362.93C371.66 493.884 390.344 475.148 414.286 466.383C421.007 472.735 430.104 476.447 439.567 476.447H439.76ZM476.372 440.876C476.511 436.027 480.864 432.171 485.814 432.827C489.844 433.352 492.902 436.684 493.084 440.744L493.408 448.006C487.834 445.895 482.084 444.25 476.235 443.099C476.3 442.363 476.351 441.624 476.372 440.876ZM557.902 517.554C555.58 509.695 552.339 502.099 548.262 494.954C557.663 491.979 565.564 485.61 570.383 477.136C570.426 477.062 570.467 476.986 570.508 476.91C579.552 489.262 586.463 502.983 590.967 517.554H557.902ZM366.85 396.166C371.568 394.007 376.406 392.044 381.27 390.316C390.602 390.316 398.723 396.483 401.612 405.062C386.902 408.851 372.728 414.804 359.659 422.646V412.56C359.659 406.576 362.104 400.618 366.85 396.166ZM347.236 503.214C346.726 501.88 344.715 496.832 342.49 492.142C342.456 492.074 342.428 492.002 342.395 491.934C351.456 486.218 357.862 476.674 359.328 465.586C359.334 465.552 359.34 465.519 359.344 465.486C359.351 465.44 359.352 465.395 359.359 465.35C359.739 462.323 359.659 461.755 359.659 446.596C372.68 437.106 387.338 429.932 402.742 425.482C402.742 441.058 402.447 443.323 403.942 448.947C378.63 459.218 358.448 478.69 347.236 503.214ZM423.282 517.554C428.91 510.204 437.768 505.539 447.45 505.539C452.21 505.539 466.338 504.259 476.52 517.554H423.282ZM280.983 387.64H281.986C284.15 387.64 285.91 389.4 285.91 391.564V427.183C276.192 420.804 265.834 415.532 255.028 411.435C262.006 401.859 270.81 393.771 280.983 387.64ZM305.624 211.044C313.86 211.044 321.359 207.846 326.958 202.631C332.558 207.846 340.056 211.044 348.291 211.044C365.568 211.044 379.624 196.988 379.624 179.711V166.631H401.21C410.203 166.631 418.89 162.868 425.039 156.307L485.42 91.9098C486.048 91.2418 486.934 90.8578 487.851 90.8578H664.667C674.592 90.8578 682.667 82.7831 682.667 72.8578V42.6365C682.667 32.7111 674.592 24.6365 664.667 24.6365H486.495C477.058 24.6365 468.091 28.2151 461.25 34.7125L391.972 100.483C388.858 103.44 386.054 104.038 379.624 104.063V96.1912C379.624 78.9138 365.568 64.8578 348.291 64.8578C340.056 64.8578 332.558 68.0565 326.958 73.2712C321.359 68.0565 313.86 64.8578 305.624 64.8578C297.39 64.8578 289.891 68.0565 284.291 73.2712C278.692 68.0565 271.194 64.8578 262.958 64.8578C254.723 64.8578 247.224 68.0565 241.624 73.2712C236.026 68.0565 228.527 64.8578 220.291 64.8578C203.014 64.8578 188.958 78.9138 188.958 96.1912V255.062C182.132 266.152 179.924 279.346 182.676 292.022C167.263 303.766 153.363 317.364 141.31 332.547C137.876 336.874 138.599 343.163 142.924 346.598C147.25 350.03 153.54 349.307 156.974 344.983C167.01 332.34 178.439 320.891 191.046 310.836C200.892 324.547 216.42 331.63 231.812 331.63C259.663 331.63 282.136 308.918 282.136 281.223C282.136 277.096 281.607 272.972 280.575 268.96C304.851 264.06 319.666 264.654 344.296 264.654C437.748 264.654 488.987 323.028 493.442 325.488C529.042 360.606 550.579 406.796 555.31 456.184C556.006 463.595 552.355 470.78 545.646 474.428C545.543 474.484 545.444 474.546 545.339 474.6C536.467 479.211 526.907 476.018 520.27 468.444C520.21 468.376 520.151 468.307 520.092 468.239C516.418 463.963 513.876 458.047 513.603 451.934L513.063 439.852C512.292 422.619 496.611 410.296 479.916 413.178C469.227 414.97 460.64 422.658 457.59 432.906C455.543 439.655 457.279 441.42 454.938 446.662C454.864 446.798 454.774 446.919 454.706 447.059C452.14 452.344 447.098 455.86 441.242 456.375C435.072 456.91 429.3 454.224 425.815 449.284C423.887 446.547 422.742 443.218 422.742 439.622V412.798C422.742 399.735 417.936 389.386 409.688 381.615C408.147 380.163 406.502 378.839 404.772 377.651C414.758 368.455 421.028 355.282 421.028 340.668C421.028 312.939 398.47 290.38 370.74 290.38C343.011 290.38 320.452 312.939 320.452 340.668C320.452 360.592 332.1 377.847 348.944 385.982C343.558 392.728 340.288 401.04 339.748 409.916C339.74 410.038 339.728 410.158 339.722 410.279C339.635 411.918 339.659 409.946 339.659 441.623C339.659 462.018 339.95 462.802 338.678 466.342C338.67 466.367 338.66 466.392 338.651 466.418C336.062 473.526 329.184 477.854 322.16 477.592C313.199 477.274 305.91 469.419 305.91 460.084V447.212V391.564C305.91 378.372 295.176 367.64 281.986 367.64H198.563C184.438 367.64 172.346 377.251 169.158 391.014L164.944 409.206C163.078 417.231 156.531 422.616 148.7 422.963C142.307 423.239 137.127 423.074 133.34 418.272C131.579 416.086 130.519 413.304 130.519 410.275V409.763C130.518 400.308 132.043 390.899 135.051 381.799C136.783 376.555 133.938 370.899 128.694 369.166C123.45 367.434 117.795 370.279 116.06 375.523C112.383 386.652 110.518 398.174 110.519 409.764V410.275C110.519 413.196 110.908 416.026 111.627 418.722C72.2698 439.011 42.8925 475.048 31.0698 517.639C13.7418 518.808 0.000488281 533.27 0.000488281 550.887C0.000488281 567.895 12.8045 581.958 29.2792 583.966L33.5938 618.847C36.3565 641.184 55.4138 658.03 77.9232 658.03H517.324C522.847 658.03 527.324 653.552 527.324 648.03C527.324 642.507 522.847 638.03 517.324 638.03H77.9232C65.4938 638.03 54.9685 628.727 53.4432 616.391L49.4632 584.22H632.908L628.93 616.391C627.403 628.727 616.879 638.03 604.45 638.03H563.991C558.467 638.03 553.991 642.507 553.991 648.03C553.991 653.552 558.467 658.03 563.991 658.03H604.45C626.958 658.03 646.015 641.184 648.779 618.847L653.088 584.003C669.707 582.131 682.667 567.998 682.667 550.887C682.667 533.71 669.606 519.528 652.894 517.746C647.343 491.178 636.234 465.66 620.472 443.506C604.099 420.49 582.627 400.946 558.231 386.775C547.147 360.399 531.178 336.152 510.967 315.291C514.603 308.239 516.504 300.444 516.504 292.342C516.504 264.614 493.946 242.054 466.216 242.054C451.232 242.054 437.132 248.816 427.667 260.11C401.328 249.972 373.122 244.654 344.296 244.654C327.543 244.654 312.296 244.226 294.291 246.415V208.915C297.808 210.284 301.628 211.044 305.624 211.044Z" fill="black"/>
</g>
</svg>
