<svg id="Capa_1" enable-background="new 0 0 512 512" height="512" viewBox="0 0 512 512" width="512" xmlns="http://www.w3.org/2000/svg"><g><path d="m478.78 0h-325.56c-18.32 0-33.22 14.9-33.22 33.22v83.56c0 18.32 14.9 33.22 33.22 33.22h325.56c18.32 0 33.22-14.9 33.22-33.22v-83.56c0-18.32-14.9-33.22-33.22-33.22zm-283.78 90c-8.28 0-15-6.72-15-15s6.72-15 15-15 15 6.72 15 15-6.72 15-15 15zm242 0h-182c-8.28 0-15-6.72-15-15s6.72-15 15-15h182c8.28 0 15 6.72 15 15s-6.72 15-15 15z"/><path d="m478.78 362h-325.56c-18.32 0-33.22 14.9-33.22 33.22v83.56c0 18.32 14.9 33.22 33.22 33.22h325.56c18.32 0 33.22-14.9 33.22-33.22v-83.56c0-18.32-14.9-33.22-33.22-33.22zm-283.78 90c-8.28 0-15-6.72-15-15s6.72-15 15-15 15 6.72 15 15-6.72 15-15 15zm242 0h-182c-8.28 0-15-6.72-15-15s6.72-15 15-15h182c8.28 0 15 6.72 15 15s-6.72 15-15 15z"/><path d="m15 59.96c3.84 0 7.681-1.466 10.61-4.396l4.33-4.333v84.769c0 8.284 6.716 15 15 15s15-6.716 15-15v-84.771l4.331 4.334c5.855 5.858 15.354 5.861 21.213.007 5.86-5.856 5.863-15.354.007-21.214l-29.941-29.96c-5.589-5.803-15.633-5.801-21.22 0l-29.94 29.96c-5.856 5.86-5.853 15.357.007 21.214 2.929 2.927 6.766 4.39 10.603 4.39z"/><path d="m486.39 275.937-4.33 4.333v-84.77c0-8.284-6.716-15-15-15s-15 6.716-15 15v84.77l-4.331-4.333c-5.855-5.858-15.354-5.861-21.213-.007-5.86 5.856-5.863 15.354-.007 21.214l29.94 29.96c5.616 5.786 15.557 5.85 21.22 0l29.94-29.96c5.855-5.86 5.853-15.357-.007-21.214-5.858-5.857-15.356-5.852-21.212.007z"/><path d="m358.78 330.98c18.32 0 33.22-14.9 33.22-33.22v-83.56c0-18.32-14.9-33.22-33.22-33.22h-325.56c-18.32 0-33.22 14.9-33.22 33.22v83.56c0 18.32 14.9 33.22 33.22 33.22zm-283.78-60c-8.28 0-15-6.71-15-15 0-8.28 6.72-15 15-15s15 6.72 15 15c0 8.29-6.72 15-15 15zm60 0c-8.28 0-15-6.72-15-15s6.72-15 15-15h182c8.28 0 15 6.72 15 15s-6.72 15-15 15z"/></g></svg>