<svg fill="none" height="512" viewBox="0 0 24 24" width="512" xmlns="http://www.w3.org/2000/svg"><g fill="rgb(0,0,0)"><path d="m12 4.84985c-2.45228 0-4.5 2.04772-4.5 4.5 0 .55229.44772 1.00005 1 1.00005s1-.44776 1-1.00005c0-1.34771 1.1523-2.5 2.5-2.5s2.5 1.15229 2.5 2.5c0 1.34775-1.1523 2.50005-2.5 2.50005-.5523 0-1 .4477-1 1v1c0 .5522.4477 1 1 1s1-.4478 1-1v-.1156c1.9847-.4647 3.5-2.2749 3.5-4.38445 0-2.45228-2.0477-4.5-4.5-4.5z"/><path d="m13.3 17.85c0 .718-.5821 1.3-1.3 1.3-.718 0-1.3-.582-1.3-1.3 0-.7179.582-1.3 1.3-1.3.7179 0 1.3.5821 1.3 1.3z"/></g></svg>