<svg width="512" height="512" viewBox="0 0 512 512" fill="none" xmlns="http://www.w3.org/2000/svg">
<path d="M463.363 197.206C468.602 188.839 469.517 178.034 464.836 168.527C458.537 155.735 444.198 149.54 430.924 153.038C430.422 150.887 429.669 148.759 428.652 146.692C422.262 133.715 407.597 127.527 394.163 131.361C394.348 126.623 393.39 121.773 391.148 117.221C384.721 104.169 369.923 97.9851 356.427 101.958C356.436 97.5671 355.461 93.1071 353.39 88.9011C346.201 74.3021 328.539 68.2951 313.94 75.4831C308.208 78.3061 303.8 82.7431 300.996 87.9761C300.944 83.7221 299.966 79.4121 297.961 75.3411C290.772 60.7421 273.11 54.7351 258.511 61.9231C256.66 62.8341 254.947 63.9151 253.382 65.1351C252.892 63.3321 252.224 61.5491 251.367 59.8101C244.178 45.2111 226.516 39.2041 211.917 46.3921C202.012 51.2691 196.063 60.9671 195.505 71.2591C188.13 68.4571 179.656 68.6071 172.019 72.3671C160.589 77.9951 154.426 90.0431 155.738 102.014C148.859 99.9501 141.212 100.381 134.26 103.804C125.958 107.892 120.435 115.367 118.536 123.74C110.742 120.14 101.449 119.96 93.1471 124.048C82.2321 129.423 76.1201 140.653 76.7351 152.08C76.7231 152.08 76.7111 152.08 76.6991 152.08C60.4261 152.08 47.2341 165.272 47.2341 181.545C47.2341 187.25 48.8561 192.576 51.6631 197.088C35.7731 197.527 23.0271 210.545 23.0271 226.541C23.0271 242.814 36.2191 256.006 52.4921 256.006L255.996 271.844L460.558 256.002C476.831 256.002 490.023 242.81 490.023 226.537C490.023 211.211 478.32 198.618 463.363 197.206Z" fill="#FFEABB"/>
<path d="M82.4941 256.003C66.2211 256.003 53.0291 242.811 53.0291 226.538C53.0291 213.884 61.0061 203.093 72.2061 198.92C76.5091 197.317 79.0721 192.791 78.0201 188.322C77.5081 186.146 77.2361 183.876 77.2361 181.543C77.2361 165.27 90.4281 152.078 106.701 152.078H106.737C106.122 140.651 112.234 129.421 123.149 124.046C129.021 121.155 135.389 120.398 141.371 121.477C145.309 122.187 149.278 120.233 151.116 116.679C153.908 111.28 158.39 106.694 164.262 103.802C168.04 101.942 172.022 100.965 175.975 100.793C181.022 100.572 185.197 96.9223 186.364 92.0073C188.324 83.7543 193.815 76.4063 202.019 72.3663C206.686 70.0683 211.665 69.1193 216.515 69.3673C221.356 69.6153 225.736 66.5653 227.507 62.0533C229.839 56.1103 234.098 50.9053 239.934 47.4623C231.664 42.5813 221.174 41.8323 211.915 46.3913C202.01 51.2683 196.061 60.9663 195.503 71.2583C188.128 68.4563 179.654 68.6063 172.017 72.3663C160.587 77.9943 154.424 90.0423 155.736 102.013C148.857 99.9493 141.21 100.38 134.258 103.803C125.956 107.891 120.433 115.366 118.534 123.739C110.74 120.139 101.447 119.959 93.1451 124.047C82.2301 129.422 76.1181 140.652 76.7331 152.079C76.7211 152.079 76.7091 152.079 76.6971 152.079C60.4241 152.079 47.2321 165.271 47.2321 181.544C47.2321 187.249 48.8541 192.575 51.6611 197.087C35.7711 197.526 23.0251 210.544 23.0251 226.54C23.0251 242.813 36.2171 256.005 52.4901 256.005L255.996 271.844L271.035 270.679L82.4941 256.003Z" fill="#FFDB97"/>
<path d="M65.9831 31.1201L307.013 373.696C309.873 377.761 308.896 383.375 304.831 386.236L299.573 389.936C295.586 392.741 290.091 391.862 287.178 387.953L36.7561 51.9171C34.4011 48.7571 35.1181 44.2771 38.3411 42.0091L56.2301 29.4231C59.3921 27.1981 63.7581 27.9581 65.9831 31.1201Z" fill="#505559"/>
<path d="M95.4301 10.6351L327.131 359.841C329.826 363.903 328.797 369.372 324.81 372.178L319.552 375.878C315.487 378.738 309.873 377.761 307.012 373.696L65.9831 31.1201C63.7581 27.9581 64.5181 23.5921 67.6801 21.3671L85.5691 8.78009C88.7921 6.51309 93.2511 7.3511 95.4301 10.6351Z" fill="#505559"/>
<path d="M349.183 287.612C383.644 287.612 411.581 259.675 411.581 225.214C411.581 190.752 383.644 162.816 349.183 162.816C314.721 162.816 286.785 190.752 286.785 225.214C286.785 259.675 314.721 287.612 349.183 287.612Z" fill="#E94442"/>
<path d="M316.785 225.214C316.785 195.924 336.967 171.347 364.183 164.631C324.824 154.92 286.785 184.722 286.785 225.214C286.785 265.75 324.856 295.501 364.183 285.797C336.967 279.081 316.785 254.504 316.785 225.214Z" fill="#CF3636"/>
<path d="M349.183 256.003C366.187 256.003 379.972 242.218 379.972 225.214C379.972 208.21 366.187 194.425 349.183 194.425C332.178 194.425 318.394 208.21 318.394 225.214C318.394 242.218 332.178 256.003 349.183 256.003Z" fill="#FF959B"/>
<path d="M339.417 231.417C339.417 215.146 326.227 201.955 309.955 201.955C303.834 201.955 298.15 203.822 293.439 207.016C291.721 195.107 281.475 185.957 269.091 185.957C255.504 185.957 244.489 196.972 244.489 210.559C244.489 213.936 245.17 217.153 246.401 220.083C232.33 222.305 221.57 234.487 221.57 249.182C221.57 264.432 233.156 276.975 248.005 278.49C253.499 294.517 268.698 306.039 286.588 306.039C309.109 306.039 327.365 287.782 327.365 265.262C327.365 262.054 326.994 258.932 326.293 255.937C334.206 250.654 339.417 241.644 339.417 231.417Z" fill="#A0D94C"/>
<path d="M278.006 278.49C263.157 276.975 251.571 264.432 251.571 249.182C251.571 236.84 259.16 226.272 269.925 221.886C273.207 220.549 275.11 217.117 274.676 213.6C274.553 212.604 274.49 211.589 274.49 210.559C274.49 202.618 278.252 195.556 284.092 191.058C279.58 187.582 273.828 185.637 267.614 186.001C255.648 186.701 245.771 196.165 244.611 208.096C244.195 212.371 244.875 216.449 246.402 220.083C232.331 222.305 221.571 234.487 221.571 249.182C221.571 264.432 233.157 276.975 248.006 278.49C253.5 294.517 268.699 306.039 286.589 306.039C291.886 306.039 296.946 305.029 301.589 303.191C290.549 298.822 281.873 289.773 278.006 278.49Z" fill="#96C642"/>
<path d="M222.982 274.543C254.994 234.245 257.146 182.673 227.79 159.353C198.434 136.033 148.686 149.796 116.674 190.094C84.6623 230.392 82.5095 281.964 111.866 305.284C141.222 328.604 190.97 314.841 222.982 274.543Z" fill="#EBF3FF"/>
<path d="M141.902 305.2C112.537 281.891 114.67 230.317 146.667 190.007C163.926 168.264 186.349 154.239 207.952 149.59C179.168 142.511 142.246 157.782 116.667 190.007C84.6698 230.317 82.5368 281.891 111.902 305.2C125.428 315.936 143.276 318.803 161.723 314.834C154.501 313.058 147.791 309.875 141.902 305.2Z" fill="#DBEAFC"/>
<path d="M158.242 277.566C175.222 277.566 188.988 263.8 188.988 246.82C188.988 229.839 175.222 216.074 158.242 216.074C141.261 216.074 127.496 229.839 127.496 246.82C127.496 263.8 141.261 277.566 158.242 277.566Z" fill="#FCD258"/>
<path d="M185.037 473.222V504.5H326.956V473.222L255.996 450.352L185.037 473.222Z" fill="#505559"/>
<path d="M270.996 455.187L255.996 450.352L185.037 473.222V504.5H215.037V473.222L270.996 455.187Z" fill="#373C42"/>
<path d="M497.494 256.002H14.498C10.632 256.002 7.49805 259.136 7.49805 263.002V287.064L255.996 310.547L504.494 287.064V263.002C504.494 259.136 501.36 256.002 497.494 256.002Z" fill="#505559"/>
<path d="M37.498 287.064V263.002C37.498 259.136 40.632 256.002 44.498 256.002H14.498C10.632 256.002 7.49805 259.136 7.49805 263.002V287.064L255.996 310.547L270.996 309.129L37.498 287.064Z" fill="#373C42"/>
<path d="M318.121 473.437H193.872C90.941 473.437 7.49902 389.995 7.49902 287.064H504.495C504.494 389.995 421.052 473.437 318.121 473.437Z" fill="#E94442"/>
<path d="M37.498 287.064H7.49805C7.49805 389.995 90.94 473.437 193.871 473.437H223.871C120.941 473.437 37.498 389.995 37.498 287.064Z" fill="#CF3636"/>
<path d="M511.993 263.003C511.993 255.008 505.488 248.503 497.493 248.503H490.27C504.587 229.186 496.97 200.832 473.87 192.019C481.201 167.415 461.545 143.016 435.976 144.652C429.612 130.431 415.488 122.235 400.912 122.75C397.217 104.94 381.142 92.3789 362.912 93.2949C356.697 67.4699 326.127 56.431 304.821 72.3009C296.081 54.238 274.828 46.716 256.967 54.379C252.492 46.582 245.423 40.751 236.836 37.83C216.915 31.056 195.595 42.22 189.554 62.121C173.929 60.219 158.887 68.3539 151.955 82.2639L101.68 6.48907C97.1708 -0.307916 87.9488 -2.06291 81.2528 2.64608L63.3639 15.2331C61.2919 16.691 59.7189 18.597 58.6819 20.728C56.2709 20.988 53.9529 21.855 51.9139 23.289L34.0259 35.876C27.3419 40.578 25.8599 49.847 30.7429 56.398L54.9599 88.8949C57.4349 92.2159 62.1359 92.9039 65.4549 90.4269C68.7759 87.9519 69.4619 83.2529 66.9869 79.9319L43.0769 47.847L60.1369 35.844L144.255 155.4C139.53 158.297 134.94 161.574 130.531 165.2L86.5228 106.147C84.0488 102.827 79.3488 102.14 76.0279 104.615C72.7069 107.09 72.0209 111.789 74.4959 115.11L80.8118 123.585C74.7549 129.32 70.7789 137.022 69.5799 145.268C48.7719 149.346 35.3059 170.41 41.0579 191.35C16.871 199.089 7.89998 228.424 22.782 248.504H14.5C6.50499 248.504 0 255.009 0 263.004V287.066C0 388.813 78.5998 471.964 177.539 480.256V504.501C177.539 508.644 180.897 512.001 185.039 512.001H326.955C331.097 512.001 334.455 508.644 334.455 504.501V480.256C433.466 471.958 511.994 388.74 511.994 287.066V263.003H511.993ZM175.334 79.0939C180.861 76.3709 187.079 76.0779 192.842 78.2679C197.569 80.0669 202.719 76.7469 202.994 71.6629C204.227 48.925 234.816 43.174 244.639 63.122C246.347 66.591 246.252 70.6629 251.01 72.2489C255.838 73.8509 258.06 70.5039 261.823 68.6499C272.689 63.299 285.881 67.7879 291.231 78.6529C292.693 81.6219 293.455 84.7899 293.495 88.0659C293.589 95.7899 303.956 98.3269 307.605 91.5179C318.36 71.4499 348.975 79.2719 348.926 101.941C348.916 106.957 353.746 110.567 358.544 109.151C373.174 104.848 387.242 116.366 386.668 131.067C386.468 136.178 391.331 139.97 396.22 138.572C408.353 135.112 420.78 142.576 423.619 154.742C424.577 158.846 428.737 161.365 432.833 160.29C451.983 155.242 467.575 176.343 457.004 193.226C454.048 197.947 457.101 204.15 462.655 204.673C473.98 205.742 482.52 215.142 482.52 226.538C482.52 238.649 472.667 248.503 460.556 248.503H415.095C422.013 228.881 419.806 207.302 409.385 189.681C407.277 186.116 402.68 184.936 399.112 187.042C395.547 189.15 394.366 193.75 396.474 197.315C405.827 213.134 406.453 232.389 398.909 248.503H379.555C398.709 223.582 381.014 186.925 349.182 186.925C339.483 186.925 330.342 190.524 323.332 196.96C316.737 194.391 309.761 193.877 303.289 195.055C319.292 170.675 351.202 163.472 375.87 177.227C379.488 179.244 384.056 177.948 386.073 174.329C388.091 170.712 386.793 166.143 383.175 164.126C351.655 146.553 311.023 155.843 290.705 186.888C280.143 177.26 264.742 175.716 252.504 183.105C243.942 156.013 220.362 139.217 190.542 140.417L162.689 98.4379C163.49 96.4719 163.389 84.9749 175.334 79.0939ZM247.126 248.503C254.177 231.862 256.999 215.095 255.742 199.861C265.076 188.159 283.903 193.444 286.015 208.088C286.805 213.561 293.069 216.334 297.648 213.224C312.083 203.438 331.916 213.759 331.916 231.417C331.916 238.096 328.899 244.346 323.755 248.503H247.126ZM196.436 248.503C197.393 224.878 177.189 206.138 153.873 208.825C133.602 211.154 119.16 228.76 120.032 248.503H99.2208C101.305 230.236 109.579 211.002 122.542 194.671C139.833 172.888 158.584 164.653 159.113 164.26C220.741 133.132 261.094 186.534 230.63 248.503H196.436ZM135.057 248.503C134.166 236.206 143.073 225.165 155.587 223.727C170.103 222.07 182.425 233.978 181.423 248.503H135.057ZM342.739 248.503C349.954 234.66 347.799 217.364 336.468 205.69C351.638 195.781 372.471 206.512 372.471 225.214C372.471 238.056 362.024 248.503 349.182 248.503H342.739ZM89.4638 15.2101L174.106 142.777C168.722 144.086 163.222 145.929 157.652 148.375L72.4049 27.213L89.4638 15.2101ZM30.5299 226.538C30.5299 214.558 39.9049 204.913 51.8729 204.583C57.6499 204.423 61.0909 198.039 58.0349 193.125C49.0339 178.653 59.4109 159.578 76.7388 159.578C81.0398 159.578 84.4588 155.966 84.2278 151.675C83.9118 145.803 86.0148 140.042 89.8768 135.749L119.458 175.443C100.64 194.957 86.7128 221.081 84.1298 248.503H52.4939C40.3829 248.503 30.5299 238.649 30.5299 226.538ZM496.993 263.503V279.565H14.998V263.503H496.993ZM319.455 497H192.537V480.933C193.27 480.938 317.971 480.943 319.455 480.933V497ZM453.484 403.874H205.332C201.19 403.874 197.832 407.231 197.832 411.374C197.832 415.517 201.19 418.874 205.332 418.874H438.922C409.101 446.226 370.003 463.618 326.956 465.722C306.181 466.226 205.965 465.82 185.036 465.722C141.989 463.618 102.891 446.226 73.0699 418.874H172.646C176.788 418.874 180.146 415.517 180.146 411.374C180.146 407.231 176.788 403.874 172.646 403.874H58.5079C32.9339 374.279 16.88 336.24 15.154 294.564H496.839C495.112 336.24 479.058 374.279 453.484 403.874Z" fill="black"/>
<path d="M256.525 108.192C260.668 108.192 264.025 104.834 264.025 100.692C264.025 96.5498 260.668 93.1919 256.525 93.1919C252.383 93.1919 249.025 96.5498 249.025 100.692C249.025 104.834 252.383 108.192 256.525 108.192Z" fill="black"/>
<path d="M280.496 147.012C284.693 147.012 287.996 143.57 287.996 139.512C287.996 135.363 284.616 132.01 280.461 132.01C276.486 132.01 272.996 135.25 272.996 139.512C272.996 143.605 276.305 147.012 280.496 147.012Z" fill="black"/>
<path d="M318.396 131.812C322.41 131.812 325.896 128.561 325.896 124.312C325.896 120.054 322.406 116.81 318.418 116.81C314.25 116.81 310.896 120.17 310.896 124.312C310.896 128.673 314.471 131.812 318.396 131.812Z" fill="black"/>
</svg>
