<svg height="512" viewBox="0 0 96 96" width="512" xmlns="http://www.w3.org/2000/svg"><g id="Layer_4" fill="rgb(0,0,0)"><path d="m90.475 76.856c-.896-.148-1.735.498-1.865 1.397-.623 4.368-4.426 7.66-8.847 7.66-3.433 0-6.604-2.005-8.08-5.111-.391-.82-1.373-1.168-2.196-.781-.822.391-1.172 1.376-.781 2.198 2.019 4.245 6.359 6.991 11.057 6.991 6.051 0 11.257-4.51 12.11-10.489.13-.901-.496-1.736-1.398-1.865z"/><path d="m83.11 61.972-5.26-32.587h3.427c1.25 0 2.422-.485 3.297-1.363.893-.891 1.384-2.069 1.384-3.318v-9.738c0-1.249-.491-2.427-1.407-3.342-.886-.85-2.079-1.339-3.274-1.339h-9.077c-3.678 0-6.758 2.597-7.512 6.053h-4.588c-.911 0-1.648.738-1.648 1.648s.737 1.648 1.648 1.648h4.408v35.466c0 5.321-4.328 9.648-9.648 9.648-2.789 0-5.455-1.206-7.314-3.31-1.845-2.091-2.708-4.881-2.369-7.656l.961-7.764c5.732-3.85 9.514-10.391 9.514-17.799 0-11.816-9.613-21.429-21.43-21.429-11.816 0-21.429 9.614-21.429 21.429 0 .156.02.307.023.463-1.322.339-2.544 1.025-3.54 2.021-1.424 1.423-2.242 3.402-2.242 5.43v3.033c0 2.569 2.09 4.66 4.659 4.66h1.195c-5.405 3.57-8.888 9.679-8.888 16.505v15.121c0 .91.738 1.648 1.648 1.648h6.198c.818 6.823 6.719 12.11 13.638 12.11 6.996 0 12.82-5.256 13.637-12.11l38.491.011c2.724 0 5.362-.798 7.627-2.312l6.026-4.016c.691-.461.932-1.365.56-2.108-1.758-3.517-4.972-5.94-8.715-6.703zm-.865-47.994c.269.271.417.62.417.987v9.738c0 .367-.148.717-.42.99-.254.255-.597.395-.965.395h-1.451v-12.507h1.451c.352 0 .713.152.968.397zm-48.024-3.892c9.999 0 18.133 8.135 18.133 18.133s-8.134 18.133-18.133 18.133c-9.998 0-18.132-8.135-18.132-18.133s8.134-18.133 18.132-18.133zm-23.891 29.08v-3.033c0-1.159.465-2.288 1.275-3.099.449-.448.978-.776 1.546-.996.564 3.117 1.798 5.997 3.556 8.491h-5.016c-.762-.001-1.361-.599-1.361-1.363zm-3.033 21.165c0-7.719 5.334-14.342 12.781-16.054 3.778 3.332 8.721 5.372 14.143 5.372 2.963 0 5.786-.605 8.355-1.697l-.672 5.432c-.454 3.709.702 7.439 3.17 10.238 2.485 2.812 6.052 4.424 9.785 4.424 7.138 0 12.945-5.806 12.945-12.945v-35.467h4.396c.91 0 1.648-.738 1.648-1.648s-.738-1.648-1.648-1.648h-4.072c.652-1.612 2.229-2.756 4.071-2.756h4.33v12.507h-.616c-.483 0-.941.213-1.255.58-.313.367-.449.854-.373 1.331l5.442 33.715h-1.106c-6.32 0-11.805 4.282-13.336 10.414l-.42 1.676h-57.568zm18.187 25.583c-5.128 0-9.52-3.817-10.314-8.813h20.638c-.79 5.017-5.139 8.813-10.324 8.813zm57.927-13.857c-1.723 1.151-3.728 1.758-5.798 1.758h-9.35l.222-.889c1.165-4.66 5.334-7.916 10.139-7.916h1.939c3.056 0 5.845 1.464 7.572 3.9z"/><path d="m24.786 66.133h-8.148c-.911 0-1.648.738-1.648 1.648s.738 1.648 1.648 1.648h8.148c.911 0 1.648-.738 1.648-1.648.001-.91-.737-1.648-1.648-1.648z"/><path d="m24.786 59.378h-8.148c-.911 0-1.648.738-1.648 1.648s.738 1.648 1.648 1.648h8.148c.911 0 1.648-.738 1.648-1.648.001-.91-.737-1.648-1.648-1.648z"/><path d="m33.599 30.073h1.245c1.091 0 1.979.886 1.979 1.977s-.888 1.979-1.979 1.979h-.541c-.028-.001-.056-.009-.084-.009s-.056.007-.084.009h-3.436c-.911 0-1.648.738-1.648 1.648s.738 1.648 1.648 1.648h1.872v2.069c0 .91.738 1.648 1.648 1.648s1.648-.738 1.648-1.648v-2.173c2.42-.478 4.252-2.614 4.252-5.172 0-2.908-2.366-5.274-5.275-5.274h-1.245c-1.09 0-1.978-.889-1.978-1.979s.888-1.977 1.978-1.977h4.146c.911 0 1.648-.738 1.648-1.648s-.738-1.648-1.648-1.648h-1.878v-2.481c0-.91-.738-1.648-1.648-1.648s-1.648.738-1.648 1.648v2.585c-2.417.48-4.246 2.614-4.246 5.17-.001 2.909 2.365 5.276 5.274 5.276z"/></g></svg>