<svg enable-background="new 0 0 64 64" viewBox="0 0 64 64" xmlns="http://www.w3.org/2000/svg"><g id="Layer_1" fill="#f4bb56"><path d="m57.8 19.7c-.8 3.7-1.7 7.7-2.4 11-.8 3.8-4.2 6.5-8.1 6.5h-11v-.1c3.5-.4 6.3-3 7.1-6.5.7-3.3 1.6-7.3 2.4-11 .5-2.5-.1-5-1.7-7-1.4-1.7-3.3-2.8-5.5-3v-.1h11c2.5 0 4.9 1.1 6.5 3.1 1.6 2.1 2.2 4.7 1.7 7.1z"/><circle cx="24" cy="54.6" r="6"/><circle cx="46.9" cy="54.6" r="6"/></g><g id="Layer_2"><g><g><path d="m57.7 11.5c-2-2.4-4.9-3.8-8-3.8h-24.9c-1.1 0-2 .9-2 2s.9 2 2 2h24.9c1.9 0 3.7.9 4.9 2.3 1.2 1.5 1.7 3.4 1.3 5.3l-2.4 11c-.6 2.9-3.2 5-6.2 5h-24.7l-7-29.8c-.6-2.4-2.7-4.1-5.1-4.1h-4.5c-1.1 0-2 .9-2 2s.9 2 2 2h4.4c.6 0 1.1.4 1.2 1l6.8 28.8h-1.8c-4.3 0-7.7 3.5-7.7 7.7 0 2.1.8 4 2.3 5.5s3.4 2.3 5.5 2.3h.3c-.7 1.2-1.1 2.5-1.1 4 0 4.4 3.6 8 8 8s8-3.6 8-8c0-1.4-.4-2.8-1.1-4h9c-.7 1.2-1.1 2.5-1.1 4 0 4.4 3.6 8 8 8s8-3.6 8-8-3.6-8-8-8c-.2 0-30.2 0-30.2 0-1 0-1.9-.4-2.6-1.1s-1.1-1.6-1.1-2.6c0-2 1.7-3.7 3.7-3.7h30.6c4.8 0 9-3.4 10.1-8.1l2.4-11c.8-3.1.1-6.3-1.9-8.7zm-10.8 39.1c2.2 0 4 1.8 4 4s-1.8 4-4 4-4-1.8-4-4 1.8-4 4-4zm-23.3 0h.7c2 .2 3.6 1.9 3.6 4 0 2.2-1.8 4-4 4s-4-1.8-4-4c.1-2.1 1.7-3.8 3.7-4zm16-25v-5.3c0-1.1-.9-2-2-2s-2 .9-2 2v5.3c0 1.1.9 2 2 2s2-.9 2-2zm9 0v-5.3c0-1.1-.9-2-2-2s-2 .9-2 2v5.3c0 1.1.9 2 2 2s2-.9 2-2zm-18 0v-5.3c0-1.1-.9-2-2-2s-2 .9-2 2v5.3c0 1.1.9 2 2 2s2-.9 2-2z" fill="#2d1f47"/></g></g></g></svg>