<svg width="304" height="513" viewBox="0 0 304 513" fill="none" xmlns="http://www.w3.org/2000/svg">
<path d="M249.127 505H54.8731C49.0101 505 44.1871 500.384 43.9291 494.527L29.7891 173.209H274.212L260.072 494.527C259.813 500.384 254.99 505 249.127 505Z" fill="#DFF6FD"/>
<path d="M244.211 173.208L230.071 494.526C229.813 500.383 224.99 504.999 219.127 504.999H249.127C254.99 504.999 259.814 500.383 260.071 494.526L274.211 173.208H244.211Z" fill="#C8EFFE"/>
<path d="M288.7 173.209H15.3C11.268 173.209 8 169.941 8 165.909V154.756C8 146.196 14.94 139.256 23.5 139.256H280.5C289.06 139.256 296 146.196 296 154.756V165.909C296 169.94 292.732 173.209 288.7 173.209Z" fill="#7A6D79"/>
<path d="M280.5 139.256H250.5C259.06 139.256 266 146.196 266 154.756V165.909C266 169.941 262.732 173.209 258.7 173.209H288.7C292.732 173.209 296 169.941 296 165.909V154.756C296 146.195 289.06 139.256 280.5 139.256Z" fill="#685E68"/>
<path d="M271 139.256H33V114.075C33 108.1 37.844 103.256 43.819 103.256H260.181C266.156 103.256 271 108.1 271 114.075V139.256Z" fill="#918291"/>
<path d="M260.181 103.256H230.181C236.156 103.256 241 108.1 241 114.075V139.256H271V114.075C271 108.1 266.156 103.256 260.181 103.256Z" fill="#7A6D79"/>
<path d="M177 8H127V103.256H177V8Z" fill="#9B5E5E"/>
<path d="M177 173.208H127V268.464H177V173.208Z" fill="#855151"/>
<path d="M217.761 251.471C188.959 258.787 158.707 251.881 130.514 242.197C102.321 232.513 74.687 219.979 45.363 215.7C41.123 215.081 36.476 214.636 31.603 214.433L43.929 494.527C44.187 500.384 49.01 505 54.873 505H249.127C254.99 505 259.814 500.384 260.071 494.527L271.842 227.062C253.991 235.88 236.829 246.628 217.761 251.471Z" fill="#FFD15B"/>
<path d="M241.152 242.733L230.071 494.527C229.813 500.384 224.99 505 219.127 505H249.127C254.99 505 259.814 500.384 260.071 494.527L271.842 227.062C261.549 232.146 251.484 237.867 241.152 242.733Z" fill="#FDB441"/>
<path d="M90.6211 298.863C100.01 298.863 107.621 291.252 107.621 281.863C107.621 272.474 100.01 264.863 90.6211 264.863C81.2323 264.863 73.6211 272.474 73.6211 281.863C73.6211 291.252 81.2323 298.863 90.6211 298.863Z" fill="#9B5E5E"/>
<path d="M145.481 341.037C154.87 341.037 162.481 333.426 162.481 324.037C162.481 314.648 154.87 307.037 145.481 307.037C136.092 307.037 128.481 314.648 128.481 324.037C128.481 333.426 136.092 341.037 145.481 341.037Z" fill="#9B5E5E"/>
<path d="M96.0129 397.827C105.402 397.827 113.013 390.216 113.013 380.827C113.013 371.438 105.402 363.827 96.0129 363.827C86.6241 363.827 79.0129 371.438 79.0129 380.827C79.0129 390.216 86.6241 397.827 96.0129 397.827Z" fill="#9B5E5E"/>
<path d="M126.309 473.774C135.698 473.774 143.309 466.163 143.309 456.774C143.309 447.385 135.698 439.774 126.309 439.774C116.92 439.774 109.309 447.385 109.309 456.774C109.309 466.163 116.92 473.774 126.309 473.774Z" fill="#9B5E5E"/>
<path d="M212.46 451.869C221.849 451.869 229.46 444.258 229.46 434.869C229.46 425.48 221.849 417.869 212.46 417.869C203.071 417.869 195.46 425.48 195.46 434.869C195.46 444.258 203.071 451.869 212.46 451.869Z" fill="#9B5E5E"/>
<path d="M177 393.716C186.389 393.716 194 386.105 194 376.716C194 367.327 186.389 359.716 177 359.716C167.611 359.716 160 367.327 160 376.716C160 386.105 167.611 393.716 177 393.716Z" fill="#9B5E5E"/>
<path d="M223.101 327.429C232.49 327.429 240.101 319.818 240.101 310.429C240.101 301.04 232.49 293.429 223.101 293.429C213.712 293.429 206.101 301.04 206.101 310.429C206.101 319.818 213.712 327.429 223.101 327.429Z" fill="#9B5E5E"/>
<path d="M288.7 173.209H15.3C11.268 173.209 8 169.941 8 165.909V154.756C8 146.196 14.94 139.256 23.5 139.256H280.5C289.06 139.256 296 146.196 296 154.756V165.909C296 169.94 292.732 173.209 288.7 173.209Z" stroke="black" stroke-width="15" stroke-miterlimit="10" stroke-linecap="round" stroke-linejoin="round"/>
<path d="M247.333 103.256H260.18C266.155 103.256 270.999 108.1 270.999 114.075V139.256H33V114.075C33 108.1 37.844 103.256 43.819 103.256H212" stroke="black" stroke-width="15" stroke-miterlimit="10" stroke-linecap="round" stroke-linejoin="round"/>
<path d="M177 8H127V103.256H177V8Z" stroke="black" stroke-width="15" stroke-miterlimit="10" stroke-linecap="round" stroke-linejoin="round"/>
<path d="M127 238.389V173.208H177V250.833" stroke="black" stroke-width="15" stroke-miterlimit="10" stroke-linecap="round" stroke-linejoin="round"/>
<path d="M270.525 227.716C253.145 236.405 236.36 246.747 217.762 251.471C188.96 258.787 158.708 251.881 130.515 242.197C102.322 232.513 74.688 219.979 45.364 215.7C41.457 215.13 37.205 214.707 32.749 214.485" stroke="black" stroke-width="15" stroke-miterlimit="10" stroke-linecap="round" stroke-linejoin="round"/>
<path d="M40.9941 427.834L29.7891 173.209H274.212L260.072 494.527C259.814 500.384 254.991 505 249.128 505H54.8731C49.0101 505 44.1871 500.384 43.9291 494.527L42.5201 462.507" stroke="black" stroke-width="15" stroke-miterlimit="10" stroke-linecap="round" stroke-linejoin="round"/>
<path d="M90.6211 298.863C100.01 298.863 107.621 291.252 107.621 281.863C107.621 272.474 100.01 264.863 90.6211 264.863C81.2323 264.863 73.6211 272.474 73.6211 281.863C73.6211 291.252 81.2323 298.863 90.6211 298.863Z" stroke="black" stroke-width="15" stroke-miterlimit="10" stroke-linecap="round" stroke-linejoin="round"/>
<path d="M145.481 341.037C154.87 341.037 162.481 333.426 162.481 324.037C162.481 314.648 154.87 307.037 145.481 307.037C136.092 307.037 128.481 314.648 128.481 324.037C128.481 333.426 136.092 341.037 145.481 341.037Z" stroke="black" stroke-width="15" stroke-miterlimit="10" stroke-linecap="round" stroke-linejoin="round"/>
<path d="M96.0129 397.827C105.402 397.827 113.013 390.216 113.013 380.827C113.013 371.438 105.402 363.827 96.0129 363.827C86.6241 363.827 79.0129 371.438 79.0129 380.827C79.0129 390.216 86.6241 397.827 96.0129 397.827Z" stroke="black" stroke-width="15" stroke-miterlimit="10" stroke-linecap="round" stroke-linejoin="round"/>
<path d="M126.309 473.774C135.698 473.774 143.309 466.163 143.309 456.774C143.309 447.385 135.698 439.774 126.309 439.774C116.92 439.774 109.309 447.385 109.309 456.774C109.309 466.163 116.92 473.774 126.309 473.774Z" stroke="black" stroke-width="15" stroke-miterlimit="10" stroke-linecap="round" stroke-linejoin="round"/>
<path d="M212.46 451.869C221.849 451.869 229.46 444.258 229.46 434.869C229.46 425.48 221.849 417.869 212.46 417.869C203.071 417.869 195.46 425.48 195.46 434.869C195.46 444.258 203.071 451.869 212.46 451.869Z" stroke="black" stroke-width="15" stroke-miterlimit="10" stroke-linecap="round" stroke-linejoin="round"/>
<path d="M177 393.716C186.389 393.716 194 386.105 194 376.716C194 367.327 186.389 359.716 177 359.716C167.611 359.716 160 367.327 160 376.716C160 386.105 167.611 393.716 177 393.716Z" stroke="black" stroke-width="15" stroke-miterlimit="10" stroke-linecap="round" stroke-linejoin="round"/>
<path d="M223.101 327.429C232.49 327.429 240.101 319.818 240.101 310.429C240.101 301.04 232.49 293.429 223.101 293.429C213.712 293.429 206.101 301.04 206.101 310.429C206.101 319.818 213.712 327.429 223.101 327.429Z" stroke="black" stroke-width="15" stroke-miterlimit="10" stroke-linecap="round" stroke-linejoin="round"/>
</svg>
