<svg width="58" height="62" viewBox="0 0 58 62" fill="none" xmlns="http://www.w3.org/2000/svg">
<path d="M32.2054 3.30001C30.6054 2.10001 28.4054 2.20001 26.9054 3.60001C25.5054 5.00001 25.4054 7.30001 26.6054 8.90001C26.2054 10.2 26.5054 11.7 27.6054 12.8C29.2054 14.4 31.7054 14.4 33.3054 12.8C33.8054 12.3 34.1054 11.7 34.3054 11C35.0054 10.8 35.6054 10.5 36.1054 10C37.7054 8.40001 37.7054 5.90001 36.1054 4.30001C35.0054 3.30001 33.5054 2.90001 32.2054 3.30001Z" fill="#FFA726" stroke="#424242" stroke-miterlimit="10" stroke-linecap="round" stroke-linejoin="round"/>
<path d="M30.4055 11.9999C29.9055 11.9999 29.4055 11.7999 29.0055 11.3999C28.5055 10.8999 28.3055 10.1999 28.5055 9.3999C28.7055 8.7999 28.5055 8.0999 28.1055 7.5999C27.5055 6.7999 27.5055 5.6999 28.2055 4.9999C28.6055 4.5999 29.1055 4.3999 29.6055 4.3999" stroke="#FFCC80" stroke-miterlimit="10" stroke-linecap="round" stroke-linejoin="round"/>
<path d="M47.0054 8.90001C48.2054 7.30001 48.1054 5.10001 46.7054 3.60001C45.3054 2.20001 43.0054 2.10001 41.4054 3.30001C40.1054 2.90001 38.6054 3.20001 37.5054 4.30001C35.9054 5.90001 35.9054 8.40001 37.5054 10C38.0054 10.5 38.6054 10.8 39.3054 11C39.5054 11.7 39.8054 12.3 40.3054 12.8C41.9054 14.4 44.4054 14.4 46.0054 12.8C47.0054 11.7 47.3054 10.2 47.0054 8.90001Z" fill="#FFA726" stroke="#424242" stroke-miterlimit="10" stroke-linecap="round" stroke-linejoin="round"/>
<path d="M43.8054 4.3999C44.3054 4.3999 44.8054 4.5999 45.2054 4.9999C45.9054 5.6999 46.0054 6.7999 45.3054 7.5999C44.9054 8.0999 44.8054 8.7999 44.9054 9.3999C45.1054 10.0999 44.9054 10.7999 44.4054 11.3999C44.0054 11.7999 43.5054 11.9999 43.0054 11.9999" stroke="#FB8C00" stroke-miterlimit="10" stroke-linecap="round" stroke-linejoin="round"/>
<path d="M40.7053 4.5C40.5053 2.5 38.8053 1 36.7053 1C34.7053 1 33.0053 2.5 32.7053 4.5C31.5053 5.2 30.7053 6.5 30.7053 8C30.7053 10.2 32.5053 12 34.7053 12C35.4053 12 36.1053 11.8 36.7053 11.4C37.3053 11.7 38.0053 12 38.7053 12C40.9053 12 42.7053 10.2 42.7053 8C42.8053 6.5 41.9053 5.2 40.7053 4.5Z" fill="#FFA726" stroke="#424242" stroke-miterlimit="10" stroke-linecap="round" stroke-linejoin="round"/>
<path d="M32.8054 8C32.8054 7.3 33.2054 6.6 33.8054 6.3C34.4054 6 34.7054 5.4 34.8054 4.8C34.9054 3.8 35.8054 3 36.8054 3" stroke="#FFCC80" stroke-miterlimit="10" stroke-linecap="round" stroke-linejoin="round"/>
<path d="M52.7053 9.5C52.5053 7.5 50.8053 6 48.7053 6C46.7053 6 45.0053 7.5 44.7053 9.5C43.5053 10.2 42.7053 11.5 42.7053 13C42.7053 15.2 44.5053 17 46.7053 17C47.4053 17 48.1053 16.8 48.7053 16.4C49.3053 16.7 50.0053 17 50.7053 17C52.9053 17 54.7053 15.2 54.7053 13C54.8053 11.5 53.9053 10.2 52.7053 9.5Z" fill="#FFA726" stroke="#424242" stroke-miterlimit="10" stroke-linecap="round" stroke-linejoin="round"/>
<path d="M44.8054 13C44.8054 12.3 45.2054 11.6 45.8054 11.3C46.4054 11 46.7054 10.4 46.8054 9.8C46.9054 8.8 47.8054 8 48.8054 8" stroke="#FFCC80" stroke-miterlimit="10" stroke-linecap="round" stroke-linejoin="round"/>
<path d="M12.3053 28.0001C11.5053 28.0001 10.8053 27.3001 10.8053 26.5001V15.2001L4.3053 9.60012C3.7053 9.10012 3.6053 8.20012 4.1053 7.50012C4.6053 6.90012 5.6053 6.80012 6.2053 7.30012L13.2053 13.3001C13.5053 13.6001 13.7053 14.0001 13.7053 14.4001V26.4001C13.8053 27.3001 13.1053 28.0001 12.3053 28.0001Z" fill="#CFD8DC" stroke="#424242" stroke-miterlimit="10" stroke-linecap="round" stroke-linejoin="round"/>
<path d="M28.7053 9.5C28.5053 7.5 26.8053 6 24.7053 6C22.7053 6 21.0053 7.5 20.7053 9.5C19.5053 10.2 18.7053 11.5 18.7053 13C18.7053 15.2 20.5053 17 22.7053 17C23.4053 17 24.1053 16.8 24.7053 16.4C25.3053 16.7 26.0053 17 26.7053 17C28.9053 17 30.7053 15.2 30.7053 13C30.8053 11.5 29.9053 10.2 28.7053 9.5Z" fill="#FFA726" stroke="#424242" stroke-miterlimit="10" stroke-linecap="round" stroke-linejoin="round"/>
<path d="M20.8054 13C20.8054 12.3 21.2054 11.6 21.8054 11.3C22.4054 11 22.7054 10.4 22.8054 9.8C22.9054 8.8 23.8054 8 24.8054 8" stroke="#FFCC80" stroke-miterlimit="10" stroke-linecap="round" stroke-linejoin="round"/>
<path d="M32.8054 16.3999C33.0054 18.3999 34.7054 19.8999 36.8054 19.8999C38.8054 19.8999 40.5054 18.3999 40.8054 16.3999C42.0054 15.6999 42.8054 14.3999 42.8054 12.8999C42.8054 10.6999 41.0054 8.8999 38.8054 8.8999C38.1054 8.8999 37.4054 9.0999 36.8054 9.4999C36.2054 9.1999 35.5054 8.8999 34.8054 8.8999C32.6054 8.8999 30.8054 10.6999 30.8054 12.8999C30.8054 14.3999 31.6054 15.6999 32.8054 16.3999Z" fill="#FFA726" stroke="#424242" stroke-miterlimit="10" stroke-linecap="round" stroke-linejoin="round"/>
<path d="M41.8054 13C39.0054 13 36.8054 15.2 36.8054 18C36.8054 15.2 34.6054 13 31.8054 13C29.0054 13 26.8054 15.2 26.8054 18C26.8054 15.2 24.6054 13 21.8054 13C19.0054 13 16.8054 15.2 16.8054 18L19.7054 58.2C19.8054 59.8 21.1054 61 22.7054 61H41.0054C42.6054 61 43.9054 59.8 44.0054 58.2L46.9054 18C46.8054 15.2 44.5054 13 41.8054 13Z" fill="#455A64" stroke="#424242" stroke-miterlimit="10" stroke-linecap="round" stroke-linejoin="round"/>
<path d="M21.6053 58.1001L18.7053 18.0001C18.7053 16.4001 20.1053 15.1001 21.7053 15.1001" stroke="#546E7A" stroke-miterlimit="10" stroke-linecap="round" stroke-linejoin="round"/>
<path d="M51.8054 13C49.0054 13 46.8054 15.2 46.8054 18C46.8054 15.2 44.6054 13 41.8054 13C39.0054 13 36.8054 15.2 36.8054 18C36.8054 15.2 34.6054 13 31.8054 13C29.0054 13 26.8054 15.2 26.8054 18L29.7054 58.2C29.8054 59.8 31.1054 61 32.7054 61H51.0054C52.6054 61 53.9054 59.8 54.0054 58.2L56.9054 18C56.8054 15.2 54.5054 13 51.8054 13Z" fill="#CFD8DC" stroke="#424242" stroke-miterlimit="10" stroke-linecap="round" stroke-linejoin="round"/>
<path d="M51.8054 15C53.4054 15 54.8054 16.3 54.8054 17.9L51.9054 58" stroke="#B0BEC5" stroke-miterlimit="10" stroke-linecap="round" stroke-linejoin="round"/>
<path d="M41.8054 13C39.0054 13 36.8054 15.2 36.8054 18L37.8054 61H45.8054L46.8054 18C46.8054 15.2 44.5054 13 41.8054 13Z" fill="#546E7A" stroke="#424242" stroke-miterlimit="10" stroke-linecap="round" stroke-linejoin="round"/>
<path d="M41.8054 43C45.9476 43 49.3054 39.6421 49.3054 35.5C49.3054 31.3579 45.9476 28 41.8054 28C37.6633 28 34.3054 31.3579 34.3054 35.5C34.3054 39.6421 37.6633 43 41.8054 43Z" fill="#FFA726" stroke="#424242" stroke-miterlimit="10" stroke-linecap="round" stroke-linejoin="round"/>
<path d="M21.5054 27H4.0054C2.2054 27 0.905399 28.5 1.0054 30.3L3.5054 58.3C3.6054 59.8 4.9054 61 6.5054 61H19.0054C20.6054 61 21.9054 59.8 22.0054 58.3L24.5054 30.3C24.6054 28.5 23.2054 27 21.5054 27Z" fill="#EC407A" stroke="#424242" stroke-miterlimit="10" stroke-linecap="round" stroke-linejoin="round"/>
<path d="M5.50537 58.1001L3.00537 30.1001" stroke="#F48FB1" stroke-miterlimit="10" stroke-linecap="round" stroke-linejoin="round"/>
<path d="M22.5054 30.1001L20.0054 58.1001" stroke="#D81B60" stroke-miterlimit="10" stroke-linecap="round" stroke-linejoin="round"/>
<path d="M22.5054 30.1001L20.0054 58.1001" stroke="#D81B60" stroke-miterlimit="10" stroke-linecap="round" stroke-linejoin="round"/>
<path d="M23.3054 38.5C19.5054 38.5 17.6054 40.7 16.2054 42.4C14.9054 43.8 14.3054 44.5 12.8054 44.5C11.3054 44.5 10.7054 43.8 9.40542 42.4C8.00542 40.7 6.00542 38.5 2.30542 38.5C2.10542 38.5 2.00542 38.5 1.80542 38.5L2.20542 43.5C3.60542 43.5 4.30542 44.2 5.60542 45.6C7.00542 47.2 9.00542 49.5 12.7054 49.5C16.4054 49.5 18.4054 47.3 19.8054 45.6C21.1054 44.2 21.7054 43.5 23.2054 43.5L23.6054 38.6C23.6054 38.5 23.4054 38.5 23.3054 38.5Z" fill="#CFD8DC" stroke="#424242" stroke-miterlimit="10" stroke-linecap="round" stroke-linejoin="round"/>
<path d="M31.6053 58.1001L28.7053 18.0001C28.7053 16.4001 30.1053 15.1001 31.7053 15.1001" stroke="#ECEFF1" stroke-miterlimit="10" stroke-linecap="round" stroke-linejoin="round"/>
<path d="M32.8054 33H50.8054V38H32.8054V33Z" fill="#CFD8DC" stroke="#424242" stroke-miterlimit="10" stroke-linecap="round" stroke-linejoin="round"/>
<path d="M4.30542 44.2001L3.80542 38.6001" stroke="#ECEFF1" stroke-miterlimit="10" stroke-linecap="round" stroke-linejoin="round"/>
<path d="M21.7053 38.6001L21.2053 44.2001" stroke="#B0BEC5" stroke-miterlimit="10" stroke-linecap="round" stroke-linejoin="round"/>
<path d="M23.3054 38.5C19.5054 38.5 17.6054 40.7 16.2054 42.4C14.9054 43.8 14.3054 44.5 12.8054 44.5C11.3054 44.5 10.7054 43.8 9.40542 42.4C8.00542 40.7 6.00542 38.5 2.30542 38.5C2.10542 38.5 2.00542 38.5 1.80542 38.5L2.20542 43.5C3.60542 43.5 4.30542 44.2 5.60542 45.6C7.00542 47.2 9.00542 49.5 12.7054 49.5C16.4054 49.5 18.4054 47.3 19.8054 45.6C21.1054 44.2 21.7054 43.5 23.2054 43.5L23.6054 38.6C23.6054 38.5 23.4054 38.5 23.3054 38.5Z" stroke="#424242" stroke-miterlimit="10" stroke-linecap="round" stroke-linejoin="round"/>
<path d="M13.8054 7.5C14.6338 7.5 15.3054 6.82843 15.3054 6C15.3054 5.17157 14.6338 4.5 13.8054 4.5C12.977 4.5 12.3054 5.17157 12.3054 6C12.3054 6.82843 12.977 7.5 13.8054 7.5Z" stroke="#424242" stroke-miterlimit="10" stroke-linecap="round" stroke-linejoin="round"/>
<path d="M3.80542 21C4.63385 21 5.30542 20.3284 5.30542 19.5C5.30542 18.6716 4.63385 18 3.80542 18C2.97699 18 2.30542 18.6716 2.30542 19.5C2.30542 20.3284 2.97699 21 3.80542 21Z" stroke="#424242" stroke-miterlimit="10" stroke-linecap="round" stroke-linejoin="round"/>
</svg>
