<svg width="683" height="683" viewBox="0 0 683 683" fill="none" xmlns="http://www.w3.org/2000/svg">
<mask id="mask0_203_474" style="mask-type:luminance" maskUnits="userSpaceOnUse" x="0" y="0" width="683" height="683">
<path d="M0 -0.00012207H682.667V682.667H0V-0.00012207Z" fill="white"/>
</mask>
<g mask="url(#mask0_203_474)">
<path d="M481.41 587.812V602.699C481.41 623.851 469.024 643.007 449.775 651.774C427.1 662.1 391.614 672.667 341.334 672.667C291.054 672.667 255.567 662.1 232.891 651.774C213.642 643.007 201.258 623.851 201.258 602.699V587.812H481.41Z" fill="#8DB9C2"/>
<path d="M637.648 327.864C637.648 491.514 504.983 624.178 341.333 624.178C177.684 624.178 45.0186 491.514 45.0186 327.864H637.648Z" fill="#EFF3F5"/>
<path d="M554.141 327.864C554.141 477.339 443.456 600.943 299.581 621.236C313.225 623.162 327.16 624.178 341.334 624.178C504.984 624.178 637.648 491.514 637.648 327.864H554.141Z" fill="#C9E2E7"/>
<path d="M637.648 327.864C637.648 409.688 504.983 476.021 341.333 476.021C177.684 476.021 45.0186 409.688 45.0186 327.864C45.0186 246.039 177.684 179.707 341.333 179.707C504.983 179.707 637.648 246.039 637.648 327.864Z" fill="#8DB9C2"/>
<path d="M341.333 435.614C269.393 435.614 199.611 421.353 149.877 396.486C109.52 376.308 85.4253 350.654 85.4253 327.864C85.4253 305.074 109.52 279.421 149.877 259.242C199.611 234.376 269.393 220.113 341.333 220.113C413.273 220.113 483.056 234.376 532.789 259.242C573.147 279.421 597.241 305.074 597.241 327.864C597.241 350.654 573.147 376.308 532.789 396.486C483.056 421.353 413.273 435.614 341.333 435.614Z" fill="#C9E2E7"/>
<path d="M106.259 366.928C117.097 377.377 131.861 387.477 149.878 396.487C199.611 421.352 269.394 435.615 341.334 435.615C413.273 435.615 483.055 421.352 532.789 396.487C550.806 387.477 565.57 377.377 576.407 366.928C572.569 345.925 551.227 323.251 517.674 305.036C471.867 280.169 407.593 265.907 341.334 265.907C275.074 265.907 210.801 280.169 164.993 305.036C131.439 323.251 110.098 345.925 106.259 366.928Z" fill="#FDCB82"/>
<path d="M565.174 343.177C553.452 353.064 538.734 362.572 521.442 371.218C463.378 400.25 381.908 416.9 297.918 416.9C249.865 416.9 202.644 411.44 160.149 401.338C208.982 423.197 274.216 435.614 341.334 435.614C413.273 435.614 483.056 421.353 532.789 396.486C550.806 387.478 565.57 377.377 576.408 366.928C574.984 359.137 571.146 351.116 565.174 343.177Z" fill="#FCB143"/>
<path d="M315.743 341.333C311.735 364.041 284.244 375.005 247.051 375.005C209.858 375.005 172.776 362.856 181.054 341.333C187.788 323.824 217.042 327.161 252.439 315.743C294.192 302.273 319.783 318.436 315.743 341.333Z" fill="#FC8086"/>
<path d="M302.208 315.384C302.639 318.055 302.616 320.881 302.097 323.824C298.089 346.532 270.599 357.496 233.405 357.496C213.06 357.496 192.764 353.853 179.892 347.035C179.611 364.988 213.283 375.005 247.052 375.005C284.245 375.005 311.736 364.041 315.743 341.333C317.704 330.22 312.668 320.705 302.208 315.384Z" fill="#FB636F"/>
<path d="M432.922 326.518C432.922 336.187 420.862 344.027 405.984 344.027C391.107 344.027 379.047 336.187 379.047 326.518C379.047 316.847 391.107 309.007 405.984 309.007C420.862 309.007 432.922 316.847 432.922 326.518Z" fill="#7FD061"/>
<path d="M517.775 352.108C517.775 361.779 505.715 369.619 490.837 369.619C475.961 369.619 463.899 361.779 463.899 352.108C463.899 342.439 475.961 334.599 490.837 334.599C505.715 334.599 517.775 342.439 517.775 352.108Z" fill="#7FD061"/>
<path d="M391.168 384.434C391.168 394.104 379.108 401.943 364.231 401.943C349.353 401.943 337.293 394.104 337.293 384.434C337.293 374.763 349.353 366.924 364.231 366.924C379.108 366.924 391.168 374.763 391.168 384.434Z" fill="#7FD061"/>
<path d="M637.648 327.864C637.648 491.514 504.983 624.178 341.333 624.178C177.684 624.178 45.0186 491.514 45.0186 327.864" stroke="black" stroke-width="20" stroke-miterlimit="10" stroke-linecap="round" stroke-linejoin="round"/>
<path d="M156.068 443.499C88.3652 416.347 45.0186 374.637 45.0186 327.864C45.0186 246.039 177.684 179.707 341.333 179.707C385.92 179.707 428.207 184.632 466.137 193.451" stroke="black" stroke-width="20" stroke-miterlimit="10" stroke-linecap="round" stroke-linejoin="round"/>
<path d="M511.205 206.456C587.661 233.249 637.648 277.638 637.648 327.865C637.648 409.689 504.983 476.022 341.333 476.022C290.451 476.022 242.564 469.609 200.728 458.313" stroke="black" stroke-width="20" stroke-miterlimit="10" stroke-linecap="round" stroke-linejoin="round"/>
<path d="M157.672 255.506C206.763 232.953 273.077 220.113 341.333 220.113C413.273 220.113 483.056 234.376 532.789 259.242C573.147 279.422 597.241 305.074 597.241 327.865C597.241 350.654 573.147 376.308 532.789 396.486C483.056 421.353 413.273 435.614 341.333 435.614C269.395 435.614 199.612 421.353 149.877 396.486C109.52 376.308 85.4253 350.654 85.4253 327.865C85.4253 312.106 96.9453 294.978 117.395 279.241" stroke="black" stroke-width="20" stroke-miterlimit="10" stroke-linecap="round" stroke-linejoin="round"/>
<path d="M576.408 366.928C572.569 345.926 551.228 323.251 517.674 305.036C471.866 280.17 407.593 265.907 341.333 265.907C275.074 265.907 210.8 280.17 164.993 305.036C131.44 323.251 110.098 345.926 106.26 366.928" stroke="black" stroke-width="20" stroke-miterlimit="10" stroke-linecap="round" stroke-linejoin="round"/>
<path d="M481.41 589.16V602.698C481.41 623.852 469.024 643.008 449.775 651.773C427.1 662.1 391.614 672.667 341.334 672.667C291.054 672.667 255.567 662.1 232.891 651.773C213.642 643.008 201.258 623.852 201.258 602.698V589.16" stroke="black" stroke-width="20" stroke-miterlimit="10" stroke-linecap="round" stroke-linejoin="round"/>
<path d="M315.743 341.333C311.735 364.041 284.244 375.005 247.051 375.005C209.858 375.005 172.776 362.856 181.054 341.333C187.788 323.824 217.042 327.161 252.439 315.743C294.192 302.273 319.783 318.436 315.743 341.333Z" stroke="black" stroke-width="20" stroke-miterlimit="10" stroke-linecap="round" stroke-linejoin="round"/>
<path d="M317.089 334.599C317.089 334.599 329.212 329.211 334.599 319.783" stroke="black" stroke-width="20" stroke-miterlimit="10" stroke-linecap="round" stroke-linejoin="round"/>
<path d="M432.922 326.518C432.922 336.187 420.862 344.027 405.984 344.027C391.107 344.027 379.047 336.187 379.047 326.518C379.047 316.847 391.107 309.007 405.984 309.007C420.862 309.007 432.922 316.847 432.922 326.518Z" stroke="black" stroke-width="20" stroke-miterlimit="10" stroke-linecap="round" stroke-linejoin="round"/>
<path d="M517.775 352.108C517.775 361.779 505.715 369.619 490.837 369.619C475.961 369.619 463.899 361.779 463.899 352.108C463.899 342.439 475.961 334.599 490.837 334.599C505.715 334.599 517.775 342.439 517.775 352.108Z" stroke="black" stroke-width="20" stroke-miterlimit="10" stroke-linecap="round" stroke-linejoin="round"/>
<path d="M391.168 384.434C391.168 394.104 379.108 401.943 364.231 401.943C349.353 401.943 337.293 394.104 337.293 384.434C337.293 374.763 349.353 366.924 364.231 366.924C379.108 366.924 391.168 374.763 391.168 384.434Z" stroke="black" stroke-width="20" stroke-miterlimit="10" stroke-linecap="round" stroke-linejoin="round"/>
<path d="M346.721 9.99963C346.721 26.8343 335.946 26.8343 335.946 43.6676C335.946 60.5036 346.721 60.5036 346.721 77.3383C346.721 94.1756 335.946 94.1756 335.946 111.013C335.946 127.852 346.721 127.852 346.721 144.689" stroke="black" stroke-width="20" stroke-miterlimit="10" stroke-linecap="round" stroke-linejoin="round"/>
<path d="M410.024 43.6676C410.024 60.5036 420.8 60.5036 420.8 77.3383C420.8 94.1756 410.024 94.1756 410.024 111.013C410.024 127.852 420.8 127.852 420.8 144.689" stroke="black" stroke-width="20" stroke-miterlimit="10" stroke-linecap="round" stroke-linejoin="round"/>
<path d="M260.521 43.6676C260.521 60.5036 271.297 60.5036 271.297 77.3383C271.297 94.1756 260.521 94.1756 260.521 111.013C260.521 127.852 271.297 127.852 271.297 144.689" stroke="black" stroke-width="20" stroke-miterlimit="10" stroke-linecap="round" stroke-linejoin="round"/>
</g>
</svg>
