<svg width="512" height="481" viewBox="0 0 512 481" fill="none" xmlns="http://www.w3.org/2000/svg">
<path d="M432.981 473.284H79.0178C48.1437 473.284 23.1145 448.256 23.1145 417.381V400.577C23.1145 385.854 35.0493 373.919 49.7721 373.919H462.227C476.95 373.919 488.885 385.854 488.885 400.577V417.381C488.885 448.256 463.857 473.284 432.981 473.284Z" fill="#F59705"/>
<path d="M461.984 351.949L255.91 366.794L50.015 351.949C35.1583 351.949 23.1145 339.906 23.1145 325.049C23.1145 310.192 35.1583 298.148 50.015 298.148L255.465 286.31L461.984 298.148C476.841 298.148 488.885 310.192 488.885 325.049C488.885 339.906 476.841 351.949 461.984 351.949Z" fill="#CA2E43"/>
<path d="M80.0045 351.949C65.1477 351.949 53.104 339.906 53.104 325.049C53.104 310.192 65.1477 298.148 80.0045 298.148L270.499 287.171L255.465 286.31L50.015 298.148C35.1583 298.148 23.1145 310.192 23.1145 325.049C23.1145 339.906 35.1583 351.949 50.015 351.949L255.91 366.794L270.911 365.714L80.0045 351.949Z" fill="#AC2638"/>
<path d="M462.227 373.92H49.7721C35.0493 373.92 23.1145 385.855 23.1145 400.578V417.382C23.1145 448.256 48.1427 473.285 79.0178 473.285H109.007C87.8557 473.285 69.4522 461.537 59.9576 444.21C56.1549 437.271 58.4451 428.451 65.1867 424.307C72.3512 419.904 77.1155 413.769 90.3868 413.769C111.087 413.769 111.087 428.697 131.786 428.697C152.487 428.697 152.487 413.769 173.189 413.769C193.89 413.769 193.89 428.697 214.591 428.697C235.292 428.697 235.292 413.769 255.993 413.769C276.691 413.769 276.691 428.697 297.389 428.697C318.09 428.697 318.09 413.769 338.791 413.769C359.492 413.769 359.492 428.697 380.193 428.697C400.895 428.697 400.895 413.769 421.597 413.769C442.299 413.769 442.299 428.697 463.001 428.697C476.494 428.697 481.195 422.358 488.564 417.941C488.665 417.765 488.783 417.558 488.885 417.382V400.578C488.885 385.855 476.95 373.92 462.227 373.92Z" fill="#EF7F02"/>
<path d="M504.41 376.165C504.41 384.894 499.077 392.668 490.934 396.653C482.068 400.99 477.884 408.704 463.001 408.704C442.299 408.704 442.299 393.776 421.597 393.776C400.895 393.776 400.895 408.704 380.193 408.704C359.491 408.704 359.491 393.776 338.79 393.776C318.09 393.776 318.09 408.704 297.389 408.704C276.69 408.704 276.69 393.776 255.993 393.776C235.292 393.776 235.292 408.704 214.591 408.704C193.889 408.704 193.889 393.776 173.189 393.776C152.488 393.776 152.488 408.704 131.786 408.704C111.086 408.704 111.086 393.776 90.3868 393.776C69.687 393.776 69.687 408.704 48.9873 408.704C34.1095 408.704 29.925 400.991 21.0631 396.654C12.921 392.669 7.58887 384.896 7.58887 376.167V374.311C7.58887 361.744 18.2691 351.557 31.4445 351.557H480.555C493.73 351.557 504.41 361.744 504.41 374.311V376.165Z" fill="#80D261"/>
<path d="M37.5783 396.16V394.304C37.5783 381.737 48.2586 371.55 61.4339 371.55H504.229C502.8 360.287 492.749 351.557 480.555 351.557H31.4445C18.2691 351.557 7.58887 361.744 7.58887 374.311V376.167C7.58887 384.896 12.921 392.668 21.0631 396.654C28.1037 400.1 32.1972 405.671 41.0381 407.818C38.8329 404.366 37.5783 400.377 37.5783 396.16Z" fill="#68CA44"/>
<path d="M156.352 275.91H356.583V303.556L256 393.775L156.352 304.395V275.91Z" fill="#FFE177"/>
<path d="M166.921 286.976L186.341 275.917L156.352 275.91V304.395L256 393.775L270.994 380.325L166.921 286.976Z" fill="#FFD23C"/>
<path d="M504.41 280.534C504.41 289.263 499.077 297.037 490.934 301.021C482.068 305.359 477.884 313.072 463.001 313.072C442.299 313.072 442.299 298.144 421.597 298.144C400.895 298.144 400.895 313.072 380.193 313.072C359.491 313.072 359.491 298.144 338.79 298.144C318.09 298.144 318.09 313.072 297.389 313.072C276.69 313.072 276.69 298.144 255.993 298.144C235.292 298.144 235.292 313.072 214.591 313.072C193.889 313.072 193.889 298.144 173.189 298.144C152.488 298.144 152.488 313.072 131.786 313.072C111.086 313.072 111.086 298.144 90.3868 298.144C69.687 298.144 69.687 313.072 48.9873 313.072C34.1095 313.072 29.925 305.36 21.0631 301.022C12.921 297.038 7.58887 289.265 7.58887 280.536V278.679C7.58887 266.113 18.2691 255.925 31.4445 255.925H48.6234L255.91 246.031L470.65 255.925H480.556C493.731 255.925 504.411 266.113 504.411 278.679L504.41 280.534Z" fill="#80D261"/>
<path d="M37.5783 300.528V298.672C37.5783 286.106 48.2586 275.918 61.4339 275.918H504.229C502.8 264.655 492.749 255.925 480.555 255.925H470.648L255.91 246.031L47.9837 255.925H31.4445C18.2691 255.925 7.58887 266.113 7.58887 278.679V280.535C7.58887 289.264 12.921 297.036 21.0631 301.021C28.1037 304.467 32.1962 310.038 41.0381 312.186C38.8329 308.734 37.5783 304.745 37.5783 300.528Z" fill="#68CA44"/>
<path d="M470.65 219.455L259.294 207.508L41.3501 219.455C31.2796 219.455 23.1155 227.619 23.1155 237.69C23.1155 247.76 31.2796 255.924 41.3501 255.924H49.6991C60.7412 255.924 69.6921 264.875 69.6921 275.917V313.685C69.6921 322.26 76.6437 329.211 85.2176 329.211C93.7926 329.211 100.743 322.26 100.743 313.685V275.917C100.743 264.875 109.694 255.924 120.736 255.924H470.65C480.721 255.924 488.885 247.76 488.885 237.69C488.885 227.619 480.721 219.455 470.65 219.455Z" fill="#EA433F"/>
<path d="M80.8122 255.924H72.4631C62.3927 255.924 54.2285 247.76 54.2285 237.69C54.2285 227.619 62.3927 219.455 72.4631 219.455L274.613 208.374L259.295 207.508L41.3501 219.455C31.2796 219.455 23.1155 227.619 23.1155 237.69C23.1155 247.76 31.2796 255.924 41.3501 255.924H49.6991C60.7412 255.924 69.6921 264.875 69.6921 275.917V313.685C69.6921 322.26 76.6437 329.211 85.2176 329.211C93.7926 329.211 100.743 322.26 100.743 313.685V275.917C100.743 275.71 100.768 275.509 100.774 275.303C100.447 264.549 91.6464 255.924 80.8122 255.924Z" fill="#E32928"/>
<path d="M294.641 7.51367H217.358C111.436 7.51367 23.6633 85.2154 7.9288 186.728C5.26174 203.935 18.63 219.454 36.0419 219.454H475.956C493.368 219.454 506.736 203.935 504.069 186.728C488.336 85.2154 400.563 7.51367 294.641 7.51367Z" fill="#F59705"/>
<path d="M37.9183 186.729C53.6527 85.2153 141.427 7.51465 247.348 7.51465H217.358C111.436 7.51465 23.6633 85.2163 7.9288 186.729C5.26174 203.936 18.63 219.455 36.0419 219.455H66.0314C48.6195 219.455 35.2512 203.935 37.9183 186.729Z" fill="#EF7F02"/>
<path d="M492.769 250.818C497.862 242.27 497.573 231.499 491.909 223.211C506.057 216.204 513.861 200.941 511.48 185.58C495.082 79.794 403.594 0.016998 294.641 0.016998C217.556 0.174942 215.115 -0.363867 201.952 0.549812C197.822 0.836711 194.705 4.41745 194.992 8.548C195.278 12.6785 198.846 15.7905 202.99 15.5086C215.324 14.6529 217.333 15.1607 294.641 15.0117C396.522 15.0117 481.45 89.7395 496.662 187.877C498.622 200.526 488.777 211.957 475.957 211.957H36.0428C23.1883 211.957 13.3828 200.495 15.3391 187.877C28.1316 105.347 90.3597 38.7794 171.472 20.1799C175.508 19.2542 178.03 15.2326 177.104 11.1971C176.179 7.16049 172.156 4.64337 168.12 5.56505C80.905 25.562 14.2335 97.1049 0.520272 185.58C-1.86189 200.948 5.95036 216.208 20.0914 223.211C14.4444 231.475 14.1235 242.246 19.2307 250.818C-5.35866 260.891 -6.88213 295.689 17.7672 307.755C18.423 308.076 19.0588 308.441 19.6895 308.822C13.5587 320.267 14.2904 334.495 22.2906 345.378C-3.87118 353.1 -8.16567 388.406 15.618 402.233V417.381C15.618 452.34 44.059 480.781 79.0177 480.781H432.982C467.941 480.781 496.382 452.34 496.382 417.381V402.231C520.154 388.412 515.884 353.104 489.709 345.378C497.776 334.405 498.386 320.099 492.325 308.809C492.95 308.432 493.58 308.072 494.23 307.754C518.873 295.698 517.37 260.896 492.769 250.818ZM470.65 226.952C476.571 226.952 481.387 231.77 481.387 237.69C481.387 243.611 476.571 248.428 470.65 248.428H388.507C384.366 248.428 381.01 251.784 381.01 255.925C381.01 260.066 384.366 263.422 388.507 263.422C474.626 263.34 476.094 263.361 480.556 263.422C498.126 263.422 503.269 286.639 487.639 294.287L474.181 302.942C471.245 304.566 468 305.575 463.002 305.575C446.419 305.575 444.434 290.647 421.598 290.647C398.876 290.647 396.691 305.575 380.194 305.575C363.607 305.575 361.636 290.647 338.791 290.647C316.071 290.647 313.885 305.575 297.389 305.575C280.804 305.575 278.835 290.647 255.991 290.647C233.27 290.647 231.084 305.575 214.59 305.575C198.003 305.575 196.033 290.647 173.188 290.647C150.467 290.647 148.279 305.575 131.785 305.575C120.128 305.575 117.481 299.758 108.239 294.846V275.918C108.239 269.027 113.844 263.422 120.735 263.422H355.83C359.971 263.422 363.328 260.066 363.328 255.925C363.328 251.784 359.971 248.428 355.83 248.428H120.736C105.577 248.428 93.2457 260.759 93.2457 275.918V313.686C93.2457 318.112 89.6439 321.714 85.2175 321.714C80.7901 321.714 77.1893 318.112 77.1893 313.686V275.918C77.1893 260.759 64.8577 248.428 49.699 248.428H41.3499C35.429 248.428 30.6127 243.61 30.6127 237.689C30.6127 231.769 35.429 226.952 41.3499 226.952H470.65ZM461.984 344.452H322.217L357.135 313.133C362.307 316.748 368.944 320.568 380.194 320.568C402.916 320.568 405.101 305.641 421.598 305.641C438.181 305.641 440.166 320.568 463.002 320.568C470.126 320.568 475.399 319.035 479.624 316.994C485.499 329.841 476.061 344.452 461.984 344.452ZM169.244 305.887C189.226 303.196 190.164 320.568 214.591 320.568C237.312 320.568 239.498 305.641 255.992 305.641C272.578 305.641 274.547 320.568 297.39 320.568C322.339 320.568 322.216 303.109 342.754 305.889L256 383.703L169.244 305.887ZM50.0149 344.452C35.9668 344.452 26.4951 329.88 32.3781 316.998C41.8877 321.591 53.9905 321.497 62.6514 318.258C64.7787 328.769 74.0874 336.709 85.2165 336.709C97.911 336.709 108.239 326.38 108.239 313.686V312.788C113.483 316.501 120.176 320.567 131.785 320.567C143.044 320.567 149.682 316.742 154.856 313.125L189.782 344.452H50.0149ZM15.0862 278.678C15.0862 270.265 22.4246 263.421 31.4444 263.421C32.677 263.421 42.7124 263.263 49.699 263.421C56.5896 263.421 62.1946 269.026 62.1946 275.917V301.7C58.6528 304.034 55.1551 305.573 48.9872 305.573C36.7475 305.573 34.4723 299.238 24.3589 294.287C13.7936 289.115 15.1801 279.015 15.0862 278.678ZM432.982 465.786H79.0177C52.3271 465.786 30.6127 444.072 30.6127 417.381V411.716C35.1171 414.194 40.8401 416.201 48.9872 416.201C71.7212 416.201 73.8835 401.273 90.3867 401.273C106.973 401.273 108.942 416.201 131.786 416.201C138.759 416.201 144.584 414.786 150.117 411.75C153.746 409.758 155.074 405.201 153.083 401.57C151.091 397.941 146.534 396.614 142.902 398.604C140.695 399.815 137.437 401.206 131.786 401.206C115.2 401.206 113.231 386.278 90.3867 386.278C67.6527 386.278 65.4904 401.206 48.9872 401.206C36.7475 401.206 34.4733 394.869 24.3589 389.919C13.8146 384.758 15.1751 374.63 15.0872 374.31C15.0872 365.897 22.4256 359.054 31.4454 359.054C31.4454 359.054 205.879 359.462 206.471 359.42L240.052 389.541C229.254 394.486 227.18 401.206 214.592 401.206C199.369 401.206 198.093 390.408 181.547 387.068C177.488 386.25 173.533 388.874 172.714 392.933C171.894 396.991 174.52 400.946 178.579 401.766C190.09 404.09 193.958 416.201 214.592 416.201C237.313 416.201 239.499 401.273 255.993 401.273C272.579 401.273 274.548 416.201 297.391 416.201C320.126 416.201 322.288 401.273 338.793 401.273C355.381 401.273 357.351 416.201 380.196 416.201C402.918 416.201 405.103 401.273 421.6 401.273C438.183 401.273 440.168 416.201 463.004 416.201C471.157 416.201 476.883 414.192 481.389 411.712C481.066 414.711 483.207 427.695 474.557 442.157C466.095 456.298 450.625 465.786 432.982 465.786ZM496.913 374.31C496.768 374.834 498.384 384.661 487.639 389.918C477.613 394.824 475.185 401.206 463.002 401.206C446.419 401.206 444.434 386.278 421.598 386.278C398.876 386.278 396.691 401.206 380.194 401.206C363.607 401.206 361.636 386.278 338.791 386.278C316.071 386.278 313.885 401.206 297.389 401.206C284.822 401.206 282.709 394.48 271.943 389.546L305.581 359.374C305.682 359.387 463.111 359.758 467.873 358.932C469.118 359.152 468.804 359.009 480.555 359.054C489.574 359.054 496.913 365.898 496.913 374.31Z" fill="black"/>
<path d="M134.256 79.821L118.731 95.3465C115.803 98.2745 115.803 103.022 118.731 105.949C121.659 108.877 126.406 108.877 129.333 105.949L144.858 90.4233C147.786 87.4953 147.786 82.7479 144.858 79.821C141.93 76.893 137.183 76.893 134.256 79.821Z" fill="black"/>
<path d="M253.538 105.949L269.064 90.4233C271.992 87.4953 271.992 82.7479 269.064 79.821C266.136 76.893 261.388 76.893 258.462 79.821L242.936 95.3465C240.008 98.2745 240.008 103.022 242.936 105.949C245.864 108.878 250.61 108.877 253.538 105.949Z" fill="black"/>
<path d="M377.744 105.949L393.269 90.4233C396.197 87.4953 396.197 82.7479 393.269 79.821C390.341 76.893 385.594 76.893 382.667 79.821L367.141 95.3465C364.213 98.2745 364.213 103.022 367.141 105.949C370.069 108.878 374.816 108.877 377.744 105.949Z" fill="black"/>
<path d="M331.167 165.342C334.095 162.414 334.095 157.667 331.167 154.74L315.641 139.214C312.714 136.286 307.966 136.286 305.039 139.214C302.111 142.142 302.111 146.889 305.039 149.816L320.565 165.342C323.492 168.271 328.239 168.27 331.167 165.342Z" fill="black"/>
<path d="M196.358 165.342C199.286 168.27 204.034 168.27 206.961 165.342C209.889 162.414 209.889 157.667 206.961 154.74L191.435 139.214C188.507 136.286 183.76 136.286 180.833 139.214C177.905 142.142 177.905 146.889 180.833 149.816L196.358 165.342Z" fill="black"/>
</svg>
